<svg xmlns="http://www.w3.org/2000/svg" xmlns="http://www.w3.org/2000/svg" viewBox="0 0 250 233"><g transform="translate(88.00,71.01) scale(0.1201)"><path d="M6.000,437.000c.19,-.27,.44,-.47,.73,-.21a1.64,1.64,0,0,1,.38,1.28c.24,5.87,.89,11.7,1.61,17.53,.65,5.21,1.31,10.43,2.32,15.58,1.58,8,3.23,16,5.54,23.88,3.31,11.27,6.86,22.45,11.25,33.35,2,5,4.16,10,6.52,14.86,2.05,4.24,4.36,8.35,6.52,12.54a228.39,228.39,0,0,0,16,26.33,266.51,266.51,0,0,0,17.28,22.65c4.66,5.37,9.21,10.85,14.25,15.86a285.3,285.3,0,0,0,23.95,21.89c6.37,5,12.69,10.11,19.42,14.65,5.06,3.42,10.12,6.85,15.35,10s10.47,6,15.82,8.76q12.35,6.41,25.24,11.65a305.56,305.56,0,0,0,34.46,11.54q10.52,2.86,21.22,4.82c5.77,1.06,11.56,2.1,17.39,2.79,5.67,.66,11.34,1.39,17.06,1.66,4.62,.23,9.23,.74,13.88,.68,6,-.09,12.07,0,18.11,0a14.42,14.42,0,0,0,2.08,-.06c3.3,-.48,6.62,-.51,9.93,-.82,3.77,-.34,7.53,-.71,11.28,-1.14,4.3,-.5,8.56,-1.16,12.84,-1.84,6.48,-1,12.94,-2.16,19.33,-3.6,5.34,-1.21,10.61,-2.75,15.86,-4.32A292.34,292.34,0,0,0,415.41,685c9.41,-4.14,18.62,-8.69,27.59,-13.72a314.32,314.32,0,0,0,30.32,-19.68c6.27,-4.52,12.16,-9.53,18,-14.55,7.4,-6.35,14.23,-13.29,21,-20.32,6.21,-6.48,11.77,-13.52,17.41,-20.49,6.95,-8.6,12.79,-18,18.66,-27.36,2.72,-4.32,5.07,-8.85,7.51,-13.33,4.22,-7.75,7.74,-15.83,11.37,-23.84a165,165,0,0,0,6.31,-16.69c2.94,-8.95,5.59,-18,7.79,-27.16,1.53,-6.38,2.7,-12.84,4,-19.26a145.11,145.11,0,0,0,2.55,-19.5,3.66,3.66,0,0,1,.43,-2C588.65,446.72,589,446.8,589.26,447.2Z" transform="translate(-6.02 -13.49)" fill="#fff" /><path d="M6,402.62V13.49H589.26V396.12c-.27.39-.59.47-.89.08a2.57,2.57,0,0,1-.39-1.55c-.06-2.09-.31-4.15-.56-6.22-.59-4.83-1.06-9.69-2.09-14.44-1.47-6.71-2.63-13.48-4.3-20.15-2-8.17-4.26-16.28-7-24.24-2.66-7.74-5.52-15.39-8.94-22.85-5.74-12.51-11.71-24.87-19.19-36.47A313.4,313.4,0,0,0,527,243.39a295.72,295.72,0,0,0-23.27-26.1c-4.85-4.76-9.73-9.5-15-13.83-4.71-3.88-9.25-8-14.19-11.56-7.57-5.47-15.16-10.93-23.18-15.77a313,313,0,0,0-37.82-19.65c-8.59-3.71-17.35-6.93-26.21-9.92-4.24-1.43-8.58-2.54-12.88-3.79-3.94-1.13-7.9-2.11-11.89-3-6.25-1.38-12.54-2.58-18.86-3.68-4.49-.78-9-1.3-13.53-1.87s-9.22-.87-13.84-1.19c-4.85-.34-9.7-.7-14.57-.64-5.57.07-11.14,0-16.71,0a13.2,13.2,0,0,0-2.09.06c-6,1-12.16.84-18.22,1.63-3.21.41-6.43.85-9.64,1.27-3.67.47-7.3,1.33-11,1.84a212.65,212.65,0,0,0-21.05,4.57q-8.88,2.19-17.58,5.1a282.62,282.62,0,0,0-27.68,10.65c-8.66,3.92-17.16,8.16-25.46,12.83-8.64,4.85-16.86,10.34-25,15.92-6,4.11-11.59,8.76-17.28,13.27-7,5.53-13.29,11.81-19.7,18-7.19,6.92-13.6,14.58-20,22.22a284,284,0,0,0-16.85,23c-7.15,10.49-13.09,21.71-18.75,33.06a252.59,252.59,0,0,0-13,32c-2.87,8.48-5.3,17.09-7.6,25.73-1.16,4.4-2,8.89-2.77,13.39-.64,4-1.35,7.91-2,11.88-.89,6-1.6,11.93-2,17.93-.13,1.78-.18,3.56-.34,5.33C7,402.56,6.91,403.36,6,402.62Z" transform="translate(-6.02 -13.49)" fill="#fff" /><path d="M6,402.62c.89.74,1-.06,1.06-.61.16-1.77.21-3.55.34-5.33.42-6,1.13-12,2-17.93.6-4,1.31-7.92,2-11.88.74-4.5,1.61-9,2.77-13.39,2.3-8.64,4.73-17.25,7.6-25.73a252.59,252.59,0,0,1,13-32c5.66-11.35,11.6-22.57,18.75-33.06a284,284,0,0,1,16.85-23c6.4-7.64,12.81-15.3,20-22.22,6.41-6.15,12.72-12.43,19.7-18,5.69-4.51,11.27-9.16,17.28-13.27,8.16-5.58,16.38-11.07,25-15.92,8.3-4.67,16.8-8.91,25.46-12.83a282.62,282.62,0,0,1,27.68-10.65q8.69-2.9,17.58-5.1a212.65,212.65,0,0,1,21.05-4.57c3.67-.51,7.3-1.37,11-1.84,3.21-.42,6.43-.86,9.64-1.27,6.06-.79,12.19-.64,18.22-1.63a13.2,13.2,0,0,1,2.09-.06c5.57,0,11.14.05,16.71,0,4.87-.06,9.72.3,14.57.64,4.62.32,9.25.61,13.84,1.19s9,1.09,13.53,1.87c6.32,1.1,12.61,2.3,18.86,3.68,4,.89,7.95,1.87,11.89,3,4.3,1.25,8.64,2.36,12.88,3.79,8.86,3,17.62,6.21,26.21,9.92a313,313,0,0,1,37.82,19.65c8,4.84,15.61,10.3,23.18,15.77,4.94,3.57,9.48,7.68,14.19,11.56,5.27,4.33,10.15,9.07,15,13.83A295.72,295.72,0,0,1,527,243.39a313.4,313.4,0,0,1,18.93,26.89c7.48,11.6,13.45,24,19.19,36.47,3.42,7.46,6.28,15.11,8.94,22.85,2.73,8,5,16.07,7,24.24,1.67,6.67,2.83,13.44,4.3,20.15,1,4.75,1.5,9.61,2.09,14.44.25,2.07.5,4.13.56,6.22a2.57,2.57,0,0,0,.39,1.55c.3.39.62.31.89-.08v3.25c-.08,0-.2-.08-.22-.05a3.18,3.18,0,0,0,.22,3.76v35.29c-.21,0-.49-.06-.54.26a30.45,30.45,0,0,0-.14,5.05c0,.37.35.42.68.27v3.25c-.27-.4-.61-.48-.89-.08a3.66,3.66,0,0,0-.43,2,145.11,145.11,0,0,1-2.55,19.5c-1.33,6.42-2.5,12.88-4,19.26-2.2,9.18-4.85,18.21-7.79,27.16a165,165,0,0,1-6.31,16.69c-3.63,8-7.15,16.09-11.37,23.84-2.44,4.48-4.79,9-7.51,13.33-5.87,9.35-11.71,18.76-18.66,27.36-5.64,7-11.2,14-17.41,20.49-6.74,7-13.57,14-21,20.32-5.86,5-11.75,10-18,14.55A314.32,314.32,0,0,1,443,671.31c-9,5-18.18,9.58-27.59,13.72a292.34,292.34,0,0,1-33.76,12.22c-5.25,1.57-10.52,3.11-15.86,4.32-6.39,1.44-12.85,2.58-19.33,3.6-4.28.68-8.54,1.34-12.84,1.84-3.75.43-7.51.8-11.28,1.14-3.31.31-6.63.34-9.93.82a14.42,14.42,0,0,1-2.08.06c-6,0-12.08-.06-18.11,0-4.65.06-9.26-.45-13.88-.68-5.72-.27-11.39-1-17.06-1.66-5.83-.69-11.62-1.73-17.39-2.79q-10.71-1.95-21.22-4.82a305.56,305.56,0,0,1-34.46-11.54Q175.3,682.35,163,675.92c-5.35-2.78-10.66-5.65-15.82-8.76s-10.29-6.57-15.35-10c-6.73-4.54-13.05-9.62-19.42-14.65a285.3,285.3,0,0,1-23.95-21.89c-5-5-9.59-10.49-14.25-15.86A266.51,266.51,0,0,1,56.9,582.12a228.39,228.39,0,0,1-16-26.33c-2.16-4.19-4.47-8.3-6.52-12.54-2.36-4.86-4.49-9.84-6.52-14.86-4.39-10.9-7.94-22.08-11.25-33.35-2.31-7.87-4-15.86-5.54-23.88-1-5.15-1.67-10.37-2.32-15.58-.72-5.83-1.37-11.66-1.61-17.53a1.64,1.64,0,0,0-.38-1.28c-.29-.26-.54-.06-.73.21ZM298.45,708c7.73,0,15.44.1,23.17-.67,6.37-.63,12.74-1.22,19.09-2.05,5-.66,10-1.73,15.05-2.55a89.38,89.38,0,0,0,9.75-1.93c6.62-1.83,13.27-3.56,19.85-5.56a291.11,291.11,0,0,0,30.85-11.44c7.23-3.12,14.28-6.66,21.24-10.36,6.07-3.23,12-6.68,17.79-10.43a274.56,274.56,0,0,0,28-20.25c5.53-4.7,11.23-9.22,16.38-14.35,6.36-6.32,12.88-12.49,18.59-19.44,3.92-4.78,8-9.42,11.79-14.29A302.77,302.77,0,0,0,548,568c7.48-12.12,13.42-25,19.1-38.08A245.48,245.48,0,0,0,577,501.5q2.7-9.11,4.66-18.41c1.8-8.59,3.39-17.23,4.56-25.94a136.84,136.84,0,0,0,1.47-13.8c.17-5.33.87-10.64.66-16a9.3,9.3,0,0,1,.11-1.39,37.07,37.07,0,0,0,.08-7.88c-.39-4.31-.45-8.64-.59-13-.17-5.19-.77-10.32-1.23-15.46-.54-6.05-1.69-12.05-2.76-18-1.43-7.9-3.06-15.77-5.19-23.5-3.51-12.74-7.37-25.36-12.86-37.42-2.3-5.07-4.46-10.2-6.9-15.2a211.58,211.58,0,0,0-12.78-23.12c-3.32-5.11-6.53-10.3-10-15.35s-7.46-10-11.35-14.94c-4.8-6.06-9.79-12-15.17-17.52-7.33-7.53-14.72-15-22.91-21.65-4.5-3.65-8.81-7.54-13.52-10.91-7.29-5.21-14.52-10.48-22.22-15.11-8.82-5.29-17.74-10.37-27-14.8a297.7,297.7,0,0,0-31.28-12.85c-7.24-2.48-14.56-4.65-21.94-6.66s-14.89-3.46-22.39-4.9c-3.41-.66-6.85-1.15-10.28-1.61-3.83-.52-7.68-.82-11.49-1.4a42.92,42.92,0,0,0-6.69-.47,11.53,11.53,0,0,1-1.86-.08,64.61,64.61,0,0,0-11.54-.81c-10.74.23-21.47-.36-32.22.76-5.9.62-11.84,1-17.72,1.79-6.5.82-13,2-19.37,3.37a298.12,298.12,0,0,0-34.63,9.4,306.19,306.19,0,0,0-36.37,15.1c-6.27,3-12.28,6.55-18.32,10a246.83,246.83,0,0,0-21,13.68,258.3,258.3,0,0,0-22.28,17.75,287,287,0,0,0-22.36,21.9,267,267,0,0,0-19.86,24.15c-3.57,5-7.12,10.1-10.54,15.24-2,3-3.75,6.22-5.65,9.31C41.74,283.32,38,291.32,34,299.17c-2.74,5.36-4.84,11-7.08,16.63-4.77,11.93-8.25,24.27-11.61,36.64-1.28,4.69-2.23,9.47-3.12,14.25-.8,4.24-1.54,8.5-2,12.79-.34,2.84-.66,5.67-1,8.5a66.11,66.11,0,0,0-.78,9,6.4,6.4,0,0,1-.11,1.15,42.13,42.13,0,0,0-.69,8.06c0,10.83-.53,21.66.36,32.48.24,2.92.31,5.86.62,8.77.61,5.6,1.45,11.16,2.21,16.74a196.35,196.35,0,0,0,4.1,21.12c1.24,4.95,2.75,9.82,4.1,14.74a264.66,264.66,0,0,0,13,35.94c2.91,6.65,6.35,13,9.7,19.49,2.68,5.15,5.6,10.15,8.62,15.1,3.18,5.21,6.71,10.19,10.2,15.2a203.3,203.3,0,0,0,14.94,19.18c3.29,3.69,6.42,7.53,9.81,11.13,5.21,5.51,10.63,10.8,16.22,15.93,4,3.71,8.21,7.26,12.48,10.7,5.66,4.55,11.34,9,17.38,13.1,5.33,3.57,10.57,7.29,16.1,10.54A299.11,299.11,0,0,0,179.47,683c8.51,3.71,17.11,7.16,25.91,10.1,6.16,2,12.34,4,18.64,5.62,7.33,1.84,14.68,3.63,22.15,4.87,3.65.6,7.3,1.21,11,1.77,3.28.51,6.6.74,9.88,1.19,5.36.75,10.76,1.05,16.14,1.43C288.22,708.31,293.35,708,298.45,708Z" transform="translate(-6.02 -13.49)" fill="#9c7f53" /><path d="M589.26,444c-.33.15-.68.1-.68-.27a30.45,30.45,0,0,1,.14-5.05c0-.32.33-.22.54-.26Z" transform="translate(-6.02 -13.49)" fill="#fff" /><path d="M589.26,403.08a3.18,3.18,0,0,1-.22-3.76s.14,0,.22.05Z" transform="translate(-6.02 -13.49)" fill="#fff" /><path d="M298.45,708c-5.1,0-10.23.28-15.31-.07-5.38-.38-10.78-.68-16.14-1.43-3.28-.45-6.6-.68-9.88-1.19-3.65-.56-7.3-1.17-11-1.77-7.47-1.24-14.82-3-22.15-4.87-6.3-1.58-12.48-3.57-18.64-5.62-8.8-2.94-17.4-6.39-25.91-10.1a299.11,299.11,0,0,1-32.1-16.64c-5.53-3.25-10.77-7-16.1-10.54-6-4-11.72-8.55-17.38-13.1-4.27-3.44-8.44-7-12.48-10.7-5.59-5.13-11-10.42-16.22-15.93-3.39-3.6-6.52-7.44-9.81-11.13a203.3,203.3,0,0,1-14.94-19.18c-3.49-5-7-10-10.2-15.2-3-4.95-5.94-9.95-8.62-15.1-3.35-6.44-6.79-12.84-9.7-19.49A264.66,264.66,0,0,1,19,500c-1.35-4.92-2.86-9.79-4.1-14.74a196.35,196.35,0,0,1-4.1-21.12C10,458.59,9.15,453,8.54,447.43c-.31-2.91-.38-5.85-.62-8.77C7,427.84,7.57,417,7.56,406.18a42.13,42.13,0,0,1,.69-8.06A6.4,6.4,0,0,0,8.36,397a66.11,66.11,0,0,1,.78-9c.35-2.83.67-5.66,1-8.5.51-4.29,1.25-8.55,2-12.79.89-4.78,1.84-9.56,3.12-14.25,3.36-12.37,6.84-24.71,11.61-36.64,2.24-5.6,4.34-11.27,7.08-16.63,4-7.85,7.73-15.85,12.34-23.38,1.9-3.09,3.63-6.3,5.65-9.31,3.42-5.14,7-10.2,10.54-15.24A267,267,0,0,1,82.4,227.09a287,287,0,0,1,22.36-21.9A258.3,258.3,0,0,1,127,187.44a246.83,246.83,0,0,1,21-13.68c6-3.44,12-6.95,18.32-10a306.19,306.19,0,0,1,36.37-15.1,298.12,298.12,0,0,1,34.63-9.4c6.42-1.33,12.87-2.55,19.37-3.37,5.88-.74,11.82-1.17,17.72-1.79,10.75-1.12,21.48-.53,32.22-.76a64.61,64.61,0,0,1,11.54.81,11.53,11.53,0,0,0,1.86.08,42.92,42.92,0,0,1,6.69.47c3.81.58,7.66.88,11.49,1.4,3.43.46,6.87.95,10.28,1.61,7.5,1.44,15,2.89,22.39,4.9s14.7,4.18,21.94,6.66a297.7,297.7,0,0,1,31.28,12.85c9.28,4.43,18.2,9.51,27,14.8,7.7,4.63,14.93,9.9,22.22,15.11,4.71,3.37,9,7.26,13.52,10.91,8.19,6.64,15.58,14.12,22.91,21.65,5.38,5.55,10.37,11.46,15.17,17.52,3.89,4.9,7.83,9.75,11.35,14.94s6.64,10.24,10,15.35A211.58,211.58,0,0,1,559,295.53c2.44,5,4.6,10.13,6.9,15.2,5.49,12.06,9.35,24.68,12.86,37.42,2.13,7.73,3.76,15.6,5.19,23.5,1.07,6,2.22,12,2.76,18,.46,5.14,1.06,10.27,1.23,15.46.14,4.31.2,8.64.59,13a37.07,37.07,0,0,1-.08,7.88,9.3,9.3,0,0,0-.11,1.39c.21,5.34-.49,10.65-.66,16a136.84,136.84,0,0,1-1.47,13.8c-1.17,8.71-2.76,17.35-4.56,25.94q-1.95,9.3-4.66,18.41A245.48,245.48,0,0,1,567.1,530c-5.68,13-11.62,26-19.1,38.08a302.77,302.77,0,0,1-18,26.68c-3.78,4.87-7.87,9.51-11.79,14.29-5.71,7-12.23,13.12-18.59,19.44-5.15,5.13-10.85,9.65-16.38,14.35a274.56,274.56,0,0,1-28,20.25c-5.76,3.75-11.72,7.2-17.79,10.43-7,3.7-14,7.24-21.24,10.36a291.11,291.11,0,0,1-30.85,11.44c-6.58,2-13.23,3.73-19.85,5.56a89.38,89.38,0,0,1-9.75,1.93c-5,.82-10,1.89-15.05,2.55-6.35.83-12.72,1.42-19.09,2.05C313.89,708.13,306.18,708,298.45,708ZM582.34,420.49c.41-5.22-.58-11.37-.46-17.55a5.37,5.37,0,0,0,0-.7c-.65-5.74-1-11.51-1.8-17.23-.62-4.5-1.23-9-2.1-13.46-1.61-8.24-3.33-16.45-5.62-24.55-1.92-6.75-3.94-13.45-6.45-20-1.82-4.76-3.62-9.52-5.61-14.22a235.15,235.15,0,0,0-14.06-28.64c-4.57-7.71-9-15.46-14.23-22.78-.89-1.25-1.64-2.62-2.58-3.84-3.76-4.88-7.53-9.76-11.38-14.57a119.2,119.2,0,0,0-8.81-10.11c-2.25-2.23-4.48-4.5-6.53-6.91a93.29,93.29,0,0,0-7.62-7.78c-3.72-3.48-7.58-6.8-11.42-10.14-2.56-2.23-5.14-4.43-7.79-6.54-2.84-2.26-5.74-4.43-8.65-6.59s-5.71-4.22-8.65-6.21c-2.74-1.86-5.6-3.53-8.39-5.33-6-3.9-12.27-7.46-18.61-10.84A296.41,296.41,0,0,0,402.09,159c-8.46-3.38-17.09-6.24-25.84-8.77q-12.79-3.69-25.85-6.2c-4.91-.94-9.87-1.67-14.82-2.39-4.42-.64-8.87-1-13.31-1.5-2.55-.27-5.1-.15-7.62-.46a122,122,0,0,0-12.22-.77,153.45,153.45,0,0,0-15.75.28c-4.9.41-9.84.49-14.76,1-5.36.53-10.71,1.11-16.05,1.86q-12.26,1.74-24.3,4.54c-6.29,1.47-12.56,3.08-18.73,5-5.59,1.75-11.17,3.55-16.63,5.69q-6.69,2.63-13.33,5.34c-5.44,2.21-10.65,4.93-15.91,7.51s-10.32,5.58-15.4,8.51c-7,4.05-13.75,8.57-20.41,13.18-1.65,1.15-3.34,2.24-4.9,3.5-4.5,3.62-9,7.2-13.48,10.91-4,3.32-7.88,6.69-11.56,10.34A20.54,20.54,0,0,1,99.71,218a100.79,100.79,0,0,0-10.59,10.38c-4.61,5.08-9.16,10.22-13.45,15.59-2.84,3.55-5.77,7-8.38,10.76-2.91,4.17-5.81,8.36-8.62,12.6-4.18,6.31-8.1,12.77-11.7,19.43-4.55,8.43-8.43,17.2-12.42,25.9-1.84,4-3.3,8.16-4.77,12.3-2.16,6.12-4.17,12.28-5.89,18.53-1.65,6-3.23,12.07-4.47,18.19C18,368.82,16.65,376,15.55,383.23c-.52,3.35-.63,6.75-1.23,10.08-.46,2.52-.17,5.11-.56,7.6a75.26,75.26,0,0,0-.69,9.91,187.76,187.76,0,0,0,.24,21.08c.43,4.91.51,9.86,1.1,14.75.25,2.14.27,4.29.67,6.43.56,3,1,6.07,1.45,9.1.55,3.41,1,6.86,1.72,10.24,1.18,6,2.43,11.93,4,17.81,1.64,6.11,3.33,12.21,5.33,18.2a260.41,260.41,0,0,0,9.72,24.79c3.57,7.89,7.28,15.7,11.51,23.25,4.64,8.28,9.78,16.28,15.16,24.1,3.54,5.13,7.44,10,11.33,14.91,4.61,5.81,9.4,11.45,14.44,16.86,4.36,4.69,9,9.15,13.7,13.52,5.33,4.93,11,9.44,16.5,14.15,5.76,4.94,12.13,9,18.26,13.42a138.15,138.15,0,0,0,12.88,8.2c4.11,2.31,8.08,4.88,12.27,7a276.07,276.07,0,0,0,25.37,11.87c5.75,2.24,11.44,4.62,17.31,6.56,7.9,2.61,15.84,5.07,23.94,7a309,309,0,0,0,36.59,6.6c5.58.66,11.2,1,16.8,1.43,7.33.59,14.67.49,22,.48a18.18,18.18,0,0,0,2.09,0q6.68-.72,13.37-.89c1.92-.05,3.84-.34,5.75-.57,3.44-.4,6.87-.9,10.31-1.22,3.07-.3,6.12-.75,9.15-1.28,3.72-.64,7.4-1.48,11.08-2.31,4.27-1,8.58-1.81,12.82-2.88q12.33-3.12,24.35-7.34c7.58-2.68,15-5.69,22.38-8.9s14.31-6.88,21.25-10.75a284.14,284.14,0,0,0,25.69-16.1c3.15-2.22,6.28-4.49,9.33-6.82q6.26-4.75,12.13-10c4.82-4.33,9.83-8.45,14.37-13.09,3-3,5.76-6.26,8.81-9.2a129.43,129.43,0,0,0,8.61-9.7Q523.19,594,529,586.08c4.23-5.71,8-11.7,11.79-17.73,2.13-3.41,3.91-7,6-10.42,2.26-3.61,4.15-7.39,6-11.17,2.46-4.88,4.54-10,6.87-14.91,2.76-5.87,4.64-12.08,7.16-18.05a112.62,112.62,0,0,0,3.73-11.41c1.16-3.91,2.3-7.83,3.25-11.79,1.73-7.19,3.36-14.41,4.53-21.71.72-4.49,1.49-9,2-13.48.45-4.13.8-8.29,1.14-12.43.39-4.78.22-9.56.73-14.32C582.55,426.29,582.34,423.87,582.34,420.49Z" transform="translate(-6.02 -13.49)" fill="#493d2a" /><path d="M582.34,420.49c0,3.38.21,5.8,0,8.17-.51,4.76-.34,9.54-.73,14.32-.34,4.14-.69,8.3-1.14,12.43-.5,4.51-1.27,9-2,13.48-1.17,7.3-2.8,14.52-4.53,21.71-.95,4-2.09,7.88-3.25,11.79a112.62,112.62,0,0,1-3.73,11.41c-2.52,6-4.4,12.18-7.16,18.05-2.33,5-4.41,10-6.87,14.91-1.9,3.78-3.79,7.56-6,11.17-2.12,3.39-3.9,7-6,10.42-3.75,6-7.56,12-11.79,17.73q-5.85,7.89-12.17,15.42a129.43,129.43,0,0,1-8.61,9.7c-3.05,2.94-5.84,6.17-8.81,9.2-4.54,4.64-9.55,8.76-14.37,13.09q-5.86,5.28-12.13,10c-3.05,2.33-6.18,4.6-9.33,6.82a284.14,284.14,0,0,1-25.69,16.1c-6.94,3.87-14,7.58-21.25,10.75s-14.8,6.22-22.38,8.9q-12,4.24-24.35,7.34c-4.24,1.07-8.55,1.92-12.82,2.88-3.68.83-7.36,1.67-11.08,2.31-3,.53-6.08,1-9.15,1.28-3.44.32-6.87.82-10.31,1.22-1.91.23-3.83.52-5.75.57q-6.7.16-13.37.89a18.18,18.18,0,0,1-2.09,0c-7.34,0-14.68.11-22-.48-5.6-.46-11.22-.77-16.8-1.43a309,309,0,0,1-36.59-6.6c-8.1-2-16-4.43-23.94-7-5.87-1.94-11.56-4.32-17.31-6.56a276.07,276.07,0,0,1-25.37-11.87c-4.19-2.14-8.16-4.71-12.27-7a138.15,138.15,0,0,1-12.88-8.2C132.07,649,125.7,645,119.94,640c-5.5-4.71-11.17-9.22-16.5-14.15-4.72-4.37-9.34-8.83-13.7-13.52-5-5.41-9.83-11.05-14.44-16.86-3.89-4.89-7.79-9.78-11.33-14.91-5.38-7.82-10.52-15.82-15.16-24.1-4.23-7.55-7.94-15.36-11.51-23.25a260.41,260.41,0,0,1-9.72-24.79c-2-6-3.69-12.09-5.33-18.2-1.57-5.88-2.82-11.85-4-17.81-.68-3.38-1.17-6.83-1.72-10.24-.48-3-.89-6.08-1.45-9.1-.4-2.14-.42-4.29-.67-6.43-.59-4.89-.67-9.84-1.1-14.75a187.76,187.76,0,0,1-.24-21.08,75.26,75.26,0,0,1,.69-9.91c.39-2.49.1-5.08.56-7.6.6-3.33.71-6.73,1.23-10.08,1.1-7.23,2.43-14.41,3.87-21.58,1.24-6.12,2.82-12.16,4.47-18.19,1.72-6.25,3.73-12.41,5.89-18.53,1.47-4.14,2.93-8.31,4.77-12.3,4-8.7,7.87-17.47,12.42-25.9,3.6-6.66,7.52-13.12,11.7-19.43,2.81-4.24,5.71-8.43,8.62-12.6,2.61-3.73,5.54-7.21,8.38-10.76,4.29-5.37,8.84-10.51,13.45-15.59A100.79,100.79,0,0,1,99.71,218a20.54,20.54,0,0,0,1.51-1.44c3.68-3.65,7.58-7,11.56-10.34,4.44-3.71,9-7.29,13.48-10.91,1.56-1.26,3.25-2.35,4.9-3.5,6.66-4.61,13.38-9.13,20.41-13.18,5.08-2.93,10.14-5.93,15.4-8.51s10.47-5.3,15.91-7.51q6.65-2.7,13.33-5.34c5.46-2.14,11-3.94,16.63-5.69,6.17-1.94,12.44-3.55,18.73-5q12-2.81,24.3-4.54c5.34-.75,10.69-1.33,16.05-1.86,4.92-.47,9.86-.55,14.76-1a153.45,153.45,0,0,1,15.75-.28,122,122,0,0,1,12.22.77c2.52.31,5.07.19,7.62.46,4.44.47,8.89.86,13.31,1.5,4.95.72,9.91,1.45,14.82,2.39q13.07,2.51,25.85,6.2c8.75,2.53,17.38,5.39,25.84,8.77a296.41,296.41,0,0,1,29.45,13.52c6.34,3.38,12.57,6.94,18.61,10.84,2.79,1.8,5.65,3.47,8.39,5.33,2.94,2,5.8,4.1,8.65,6.21s5.81,4.33,8.65,6.59c2.65,2.11,5.23,4.31,7.79,6.54,3.84,3.34,7.7,6.66,11.42,10.14a93.29,93.29,0,0,1,7.62,7.78c2.05,2.41,4.28,4.68,6.53,6.91A119.2,119.2,0,0,1,518,243c3.85,4.81,7.62,9.69,11.38,14.57.94,1.22,1.69,2.59,2.58,3.84,5.19,7.32,9.66,15.07,14.23,22.78a235.15,235.15,0,0,1,14.06,28.64c2,4.7,3.79,9.46,5.61,14.22,2.51,6.55,4.53,13.25,6.45,20,2.29,8.1,4,16.31,5.62,24.55.87,4.46,1.48,9,2.1,13.46.8,5.72,1.15,11.49,1.8,17.23a5.37,5.37,0,0,1,0,.7C581.76,409.12,582.75,415.27,582.34,420.49Z" transform="translate(-6.02 -13.49)" fill="#9c7f53" /></g><g transform="translate(33.62,-81.94) scale(0.2090)"><path d="M595.200,446.000a.89,.89,0,0,1,-.82,-1,27.21,27.21,0,0,0,-.49,-4c-1.28,-9.25,-5.53,-16.72,-13.29,-22a30.15,30.15,0,0,0,-12.18,-4.68,27.46,27.46,0,0,0,-10.91,.25c-1.88,.43,-3.64,1.14,-5.48,1.66a38.61,38.61,0,0,0,-14,7.63,46,46,0,0,0,-9.84,10.43c-1.26,2,-2.43,2.09,-4.46,.88,-2.68,-1.58,-5.37,-3.14,-8.06,-4.71,-6.27,-3.66,-12.53,-7.34,-18.81,-11q-8.07,-4.7,-16.16,-9.36c-6.22,-3.58,-12.48,-7.11,-18.69,-10.72,-5.59,-3.24,-11.12,-6.59,-16.7,-9.86,-6.4,-3.75,-12.84,-7.46,-19.24,-11.2,-3.79,-2.22,-7.54,-4.5,-11.34,-6.7,-5,-2.88,-10,-5.6,-14.93,-8.6,-5.86,-3.59,-11.8,-7,-17.78,-10.38,-6.55,-3.66,-12.91,-7.62,-19.42,-11.34,-3.94,-2.25,-7.85,-4.57,-11.74,-6.91,-3.55,-2.13,-7.35,-3.9,-10.61,-6.48,-3.59,-2.84,-7.64,-4.92,-11.49,-7.32,-5,-3.11,-10.16,-6,-15.24,-9,-3.64,-2.15,-7.22,-4.4,-10.91,-6.46,-6.34,-3.54,-12.52,-7.35,-18.74,-11.09q-6,-3.57,-11.9,-7.14c-2.19,-1.3,-4.43,-2.55,-6.61,-3.86,-5,-3,-9.95,-6.07,-14.94,-9.06s-10.31,-6.08,-15.45,-9.15c-4.73,-2.82,-9.42,-5.7,-14.15,-8.51,-6,-3.58,-12.11,-7.1,-18.07,-10.82,-4.81,-3,-9.67,-5.9,-14.52,-8.82,-5.95,-3.58,-11.92,-7.12,-17.88,-10.68l-11.71,-7c-4.52,-2.71,-9,-5.38,-13.53,-8.14,-2.2,-1.36,-2.46,-2.2,-1.35,-4.56,.92,-2,1.53,-4,2.32,-6,2.14,-5.38,2.28,-11,2.71,-16.67,.19,-2.6,-.56,-5.07,-1,-7.56a33.11,33.11,0,0,0,-3.87,-11.49c-.81,-1.32,-2,-2.24,-2.8,-3.56a20.56,20.56,0,0,0,-5.6,-5.82,28.14,28.14,0,0,0,-13.83,-5.52,31.47,31.47,0,0,0,-9.09,.09,41.42,41.42,0,0,0,-9.85,2.78c-2.23,1,-4.74,1.53,-6.21,3.78a1.62,1.62,0,0,1,-.81,.46c-2.34,.83,-3.32,3.42,-5.6,4.32,-.17,.06,-.28,.38,-.35,.6,-.42,1.3,-1.53,2,-2.45,2.89a20.14,20.14,0,0,0,-1.66,1.67,66.89,66.89,0,0,0,-5.14,7.17c-2.92,4.38,-6.06,8.61,-8.94,13,-4.11,6.27,-8,12.69,-11.8,19.13s-7.63,13.1,-11.09,19.85c-2.37,4.62,-4.71,9.27,-6.95,13.95,-1.83,3.81,-3.6,7.66,-5.23,11.56,-2.85,6.85,-5.7,13.7,-8.28,20.65,-2.42,6.5,-4.6,13.09,-6.78,19.68,-2,6.13,-3.65,12.38,-5.38,18.6s-3.26,12.48,-4.54,18.8c-1.34,6.62,-2.52,13.27,-3.75,19.92,-.88,4.77,-1.21,9.61,-2,14.41,-.64,4,-.55,8.1,-1.11,12.12A165.87,165.87,0,0,0,3.39,397c-.07,11,-.46,22,.34,33.07,.24,3.24,.45,6.51,.67,9.77,.13,2,.21,4,.48,5.95,.7,5,1.55,10.05,2.22,15.09,1,7.66,2.72,15.17,4.21,22.73,.89,4.46,2.33,8.77,3.39,13.17s2.35,8.67,3.51,13a128.93,128.93,0,0,0,5.48,15.29,15,15,0,0,0,1.74,3.89,8.42,8.42,0,0,1,1.41,3.51,10.16,10.16,0,0,0,.41,1.6c1.2,2.85,3,5.42,3.62,8.52a1.05,1.05,0,0,0,.41,.57,5.81,5.81,0,0,1,1.82,2.76c1.14,2.52,1.83,5.27,3.87,7.33,.3,.3,.33,.88,.48,1.33,.82,2.59,1.75,5.1,3.73,7.1a8.15,8.15,0,0,1,1.53,2.68,16,16,0,0,0,2.29,4,27.22,27.22,0,0,1,4.39,7.8A6.86,6.86,0,0,0,51,579c1.61,1.26,2.08,3.15,3.17,4.68,.55,.78,1.07,1.58,1.6,2.37,1,1.51,2.84,2.37,3.52,4.14a10,10,0,0,0,1.3,1.93c1.54,2.36,3.64,4.31,5,6.85a6.86,6.86,0,0,0,2.66,3,3.56,3.56,0,0,1,1.23,1.11,35.32,35.32,0,0,0,5.33,6.24,3,3,0,0,1,1,1.34,4.48,4.48,0,0,0,1.74,2.23,135.82,135.82,0,0,1,13.2,13.19c1.93,2.2,4.74,3.47,6.47,5.91,2.38,.78,3.16,3.61,5.57,4.35,1.08,2.31,4.11,2.39,5.27,4.6,3.42,1.91,6.09,4.86,9.45,6.79a41.09,41.09,0,0,0,5,3c2,.83,4.28,1.13,6.11,2.59,4.4,3.48,9.42,6,14.24,8.81,3.52,2,7.24,3.7,10.82,5.61,5,2.67,10.25,4.84,15.44,7.11,4.08,1.79,8.37,3.1,12.55,4.65,5.31,2,10.75,3.49,16.17,5.1,4.12,1.24,8.32,2.18,12.52,3.11,4.43,1,8.89,1.82,13.37,2.56,2.83,.47,5.72,.62,8.52,1.13a101.35,101.35,0,0,0,14.47,1.6c6.86,.25,13.73,.48,20.6,.58,4.38,.06,8.75,-.65,13.15,-.46a71.53,71.53,0,0,0,12.67,-.57c1.9,-.26,3.85,-.09,5.7,-.58a54.14,54.14,0,0,1,8.27,-1.16c4.85,-.49,9.64,-1.3,14.39,-2.26q11.7,-2.39,23.27,-5.38c2.49,-.65,4.81,-1.79,7.3,-2.31a104.17,104.17,0,0,0,14.79,-4.69c4.4,-1.63,8.83,-3.21,13.21,-4.92,6.77,-2.65,13.37,-5.68,19.95,-8.74,7.09,-3.3,14.06,-6.86,20.85,-10.77,7.95,-4.57,15.9,-9.15,23.5,-14.3,4.29,-2.92,8.74,-5.62,12.88,-8.72,5.61,-4.2,11.23,-8.4,16.66,-12.84C480,611,486,606,491.69,600.65c3.19,-3,6.77,-5.6,9.92,-8.65,3.91,-3.78,7.71,-7.67,11.55,-11.52A6.81,6.81,0,0,0,514.4,579a16.6,16.6,0,0,1,3.35,-4.32,131.87,131.87,0,0,0,9.39,-10.54c5.07,-6,10.11,-12.11,14.88,-18.4,5.44,-7.18,10.57,-14.58,15.66,-22A393.1,393.1,0,0,0,578,490c4.37,-8,8.45,-16.11,12,-24.47a46.61,46.61,0,0,0,2.37,-6,58.39,58.39,0,0,0,1.89,-10.32C594.39,448.56,594.47,448,595.2,447.93Z" transform="translate(0 0.11)" fill="#fff" /><path d="M595.2,447.93c-.73.09-.81.63-.86,1.22a58.39,58.39,0,0,1-1.89,10.32,46.61,46.61,0,0,1-2.37,6c-3.59,8.36-7.67,16.5-12,24.47a393.1,393.1,0,0,1-20.36,33.82c-5.09,7.42-10.22,14.82-15.66,22-4.77,6.29-9.81,12.36-14.88,18.4a131.87,131.87,0,0,1-9.39,10.54A16.6,16.6,0,0,0,514.4,579a6.81,6.81,0,0,1-1.24,1.45c-3.84,3.85-7.64,7.74-11.55,11.52-3.15,3-6.73,5.62-9.92,8.65C486,606,480,611,473.92,615.93c-5.43,4.44-11.05,8.64-16.66,12.84-4.14,3.1-8.59,5.8-12.88,8.72-7.6,5.15-15.55,9.73-23.5,14.3-6.79,3.91-13.76,7.47-20.85,10.77-6.58,3.06-13.18,6.09-19.95,8.74-4.38,1.71-8.81,3.29-13.21,4.92a104.17,104.17,0,0,1-14.79,4.69c-2.49.52-4.81,1.66-7.3,2.31q-11.55,3-23.27,5.38c-4.75,1-9.54,1.77-14.39,2.26a54.14,54.14,0,0,0-8.27,1.16c-1.85.49-3.8.32-5.7.58a71.53,71.53,0,0,1-12.67.57c-4.4-.19-8.77.52-13.15.46-6.87-.1-13.74-.33-20.6-.58a101.35,101.35,0,0,1-14.47-1.6c-2.8-.51-5.69-.66-8.52-1.13-4.48-.74-8.94-1.57-13.37-2.56-4.2-.93-8.4-1.87-12.52-3.11-5.42-1.61-10.86-3.13-16.17-5.1-4.18-1.55-8.47-2.86-12.55-4.65-5.19-2.27-10.42-4.44-15.44-7.11-3.58-1.91-7.3-3.57-10.82-5.61-4.82-2.82-9.84-5.33-14.24-8.81-1.83-1.46-4.07-1.76-6.11-2.59a41.09,41.09,0,0,1-5-3c-3.36-1.93-6-4.88-9.45-6.79-1.16-2.21-4.19-2.29-5.27-4.6-2.41-.74-3.19-3.57-5.57-4.35-1.73-2.44-4.54-3.71-6.47-5.91a135.82,135.82,0,0,0-13.2-13.19,4.48,4.48,0,0,1-1.74-2.23,3,3,0,0,0-1-1.34,35.32,35.32,0,0,1-5.33-6.24A3.56,3.56,0,0,0,68.24,602a6.86,6.86,0,0,1-2.66-3c-1.32-2.54-3.42-4.49-5-6.85a10,10,0,0,1-1.3-1.93c-.68-1.77-2.48-2.63-3.52-4.14-.53-.79-1-1.59-1.6-2.37-1.09-1.53-1.56-3.42-3.17-4.68a6.86,6.86,0,0,1-1.64-2.86,27.22,27.22,0,0,0-4.39-7.8,16,16,0,0,1-2.29-4,8.15,8.15,0,0,0-1.53-2.68c-2-2-2.91-4.51-3.73-7.1-.15-.45-.18-1-.48-1.33-2-2.06-2.73-4.81-3.87-7.33a5.81,5.81,0,0,0-1.82-2.76,1.05,1.05,0,0,1-.41-.57c-.59-3.1-2.42-5.67-3.62-8.52a10.16,10.16,0,0,1-.41-1.6,8.42,8.42,0,0,0-1.41-3.51,15,15,0,0,1-1.74-3.89,128.93,128.93,0,0,1-5.48-15.29c-1.16-4.34-2.45-8.64-3.51-13s-2.5-8.71-3.39-13.17C9.82,476,8.1,468.51,7.1,460.85c-.67-5-1.52-10.06-2.22-15.09-.27-2-.35-4-.48-5.95-.22-3.26-.43-6.53-.67-9.77C2.93,419,3.32,408,3.39,397a165.87,165.87,0,0,1,1.3-21.92c.56-4,.47-8.13,1.11-12.12.77-4.8,1.1-9.64,2-14.41,1.23-6.65,2.41-13.3,3.75-19.92,1.28-6.32,2.81-12.59,4.54-18.8s3.36-12.47,5.38-18.6c2.18-6.59,4.36-13.18,6.78-19.68,2.58-6.95,5.43-13.8,8.28-20.65,1.63-3.9,3.4-7.75,5.23-11.56,2.24-4.68,4.58-9.33,6.95-13.95,3.46-6.75,7.21-13.33,11.09-19.85s7.69-12.86,11.8-19.13c2.88-4.4,6-8.63,8.94-13a66.89,66.89,0,0,1,5.14-7.17,20.14,20.14,0,0,1,1.66-1.67c.92-.86,2-1.59,2.45-2.89.07-.22.18-.54.35-.6,2.28-.9,3.26-3.49,5.6-4.32a1.62,1.62,0,0,0,.81-.46c1.47-2.25,4-2.79,6.21-3.78a41.42,41.42,0,0,1,9.85-2.78,31.47,31.47,0,0,1,9.09-.09,28.14,28.14,0,0,1,13.83,5.52,20.56,20.56,0,0,1,5.6,5.82c.76,1.32,2,2.24,2.8,3.56A33.11,33.11,0,0,1,147.78,176c.47,2.49,1.22,5,1,7.56-.43,5.63-.57,11.29-2.71,16.67-.79,2-1.4,4.05-2.32,6-1.11,2.36-.85,3.2,1.35,4.56,4.48,2.76,9,5.43,13.53,8.14l11.71,7c6,3.56,11.93,7.1,17.88,10.68,4.85,2.92,9.71,5.82,14.52,8.82,6,3.72,12,7.24,18.07,10.82,4.73,2.81,9.42,5.69,14.15,8.51,5.14,3.07,10.31,6.08,15.45,9.15s9.95,6,14.94,9.06c2.18,1.31,4.42,2.56,6.61,3.86q6,3.56,11.9,7.14c6.22,3.74,12.4,7.55,18.74,11.09,3.69,2.06,7.27,4.31,10.91,6.46,5.08,3,10.22,5.91,15.24,9,3.85,2.4,7.9,4.48,11.49,7.32,3.26,2.58,7.06,4.35,10.61,6.48,3.89,2.34,7.8,4.66,11.74,6.91,6.51,3.72,12.87,7.68,19.42,11.34,6,3.35,11.92,6.79,17.78,10.38,4.89,3,10,5.72,14.93,8.6,3.8,2.2,7.55,4.48,11.34,6.7,6.4,3.74,12.84,7.45,19.24,11.2,5.58,3.27,11.11,6.62,16.7,9.86,6.21,3.61,12.47,7.14,18.69,10.72q8.1,4.65,16.16,9.36c6.28,3.65,12.54,7.33,18.81,11,2.69,1.57,5.38,3.13,8.06,4.71,2,1.21,3.2,1.09,4.46-.88a46,46,0,0,1,9.84-10.43,38.61,38.61,0,0,1,14-7.63c1.84-.52,3.6-1.23,5.48-1.66a27.46,27.46,0,0,1,10.91-.25,30.15,30.15,0,0,1,12.18,4.68c7.76,5.32,12,12.79,13.29,22a27.21,27.21,0,0,1,.49,4,.89.89,0,0,0,.82,1ZM267.28,691.57h0c6.32,0,12.64.06,19,0a69,69,0,0,0,8.12-.59c3.47-.47,6.86-1.32,10.41-1.41a33.71,33.71,0,0,0,8.49-1.34,7.75,7.75,0,0,1,1.88-.38c5.54-.23,10.82-1.91,16.19-3.05,4.19-.89,8.41-1.82,12.53-3.06,6.11-1.82,12.26-3.52,18.3-5.58s12-4.28,18-6.6c6.84-2.67,13.5-5.77,20.13-8.94,5.4-2.59,10.82-5.13,16.1-8,9-4.86,17.8-10,26.3-15.72,8.16-5.44,16.21-11,24-17.07,7-5.44,13.81-11.08,20.52-16.85,5.52-4.74,10.54-10,15.87-15,4.62-4.3,8.78-9.06,13.07-13.69s8.4-9.42,12.49-14.22c4.78-5.63,9.2-11.59,13.79-17.39,1.48-1.87,2.36-4.18,4.09-5.86a21.07,21.07,0,0,0,3.41-4.76,37.58,37.58,0,0,1,2.86-4.22c1.15-1.49,2.23-3,3.34-4.56,3.41-4.73,6.42-9.72,9.38-14.72,3.82-6.46,7.93-12.77,11.09-19.6,1-2.05,2.63-3.74,3.06-6.06a1.37,1.37,0,0,1,.44-.83c2.12-1.39,1.76-4.18,3.36-5.85-.2-1.46,1.36-2.12,1.56-3.32a19.86,19.86,0,0,1,1.38-3.54c.9-2.52,2.55-4.63,3.44-7.22,1.27-3.67,1.67-7.45,2.65-11.13a16.82,16.82,0,0,0,.32-6.43,83.65,83.65,0,0,0-1.6-8.44,20.43,20.43,0,0,0-2.74-6.57c-4.06-6.24-9.42-10.85-16.87-12.86a31,31,0,0,0-14.67-.34c-1.55.31-3,1-4.56,1.34a30.55,30.55,0,0,0-8.55,3.9c-2,1.19-4.26,2.19-5.61,4.29-3.35,1.66-4.83,5.23-7.64,7.44a1.8,1.8,0,0,0-.53,1.05c-.45,1.69-2,2.51-3.21,3.31s-2.44-.24-3.59-.8l-1.27-.67c-6.63-3.57-12.74-8-19.44-11.44-4.87-2.51-9.44-5.59-14.19-8.33-3.75-2.18-7.33-4.64-11.09-6.79-4-2.28-7.87-4.71-12-6.77a96.7,96.7,0,0,1-9.55-5.75c-2.36-1.54-5.11-2.51-7.42-4.12-2.76-1.91-5.67-3.52-8.56-5.2-2.44-1.41-5-2.66-7.41-4.1-2-1.2-4-2.54-6-3.77-4.31-2.63-8.7-5.15-13.17-7.51-4.09-2.16-8-4.67-12-7q-9.3-5.44-18.62-10.86c-3.79-2.21-7.62-4.36-11.39-6.61-5.68-3.4-11.23-7-17-10.25-7.26-4-14.32-8.38-21.4-12.7s-14-8.38-21-12.48q-15.4-9-30.75-18.11c-5.34-3.17-10.42-6.85-16.32-9a4.17,4.17,0,0,1-1-.65,20,20,0,0,0-6.06-3.59,2,2,0,0,1-1.18-.77,2.25,2.25,0,0,0-1.79-1,2.53,2.53,0,0,1-1.46-.76,13.41,13.41,0,0,0-4.35-2.76c-1.82-.73-3.32-2-5.07-2.95-2.27-1.18-4.27-2.88-6.5-4.21-2.52-1.51-5.13-2.87-7.57-4.52s-4.66-3.31-7.27-4.11c-2.92-.89-4.63-3.68-7.64-4.16a.66.66,0,0,1-.4-.25c-1.11-1.45-2.76-2.16-4.29-3a95.15,95.15,0,0,1-8.61-5.21c-1.55-1.08-3.32-1.84-4.93-2.85q-12.27-7.68-24.83-14.9a38,38,0,0,1-4-2.07c-3.8-2.94-8.09-5.09-12.14-7.61q-6.48-4-13.07-7.89a3.74,3.74,0,0,1-1.92-4,7.41,7.41,0,0,1,.76-2.5,61.21,61.21,0,0,0,4.22-12.94c.64-3.09.31-6.21.42-9.31a34.33,34.33,0,0,0-4.77-18.19,24,24,0,0,0-6.89-7.58,27.35,27.35,0,0,0-19.1-5.39,37.26,37.26,0,0,0-11.3,2.9,38.82,38.82,0,0,0-14.75,11.56c-4.36,5.3-8.29,10.92-12.11,16.63-3,4.51-6,9.07-8.85,13.66a353.08,353.08,0,0,0-17.58,30.76c-3.46,6.92-6.87,13.87-10,21-4.68,10.6-8.88,21.37-12.78,32.27-3.1,8.63-5.52,17.49-8.08,26.3-2.76,9.51-4.85,19.16-6.83,28.84-1.36,6.62-2.29,13.34-3.37,20-.39,2.44-.73,4.89-1,7.34-.4,3.88-.56,7.8-1.09,11.66a167.12,167.12,0,0,0-1.24,19.08c-.33,13.65-.43,27.31.77,40.94.38,4.37.66,8.75,1.17,13.09.65,5.54,1.38,11.07,2.37,16.55,1.34,7.36,2.87,14.69,4.5,22,1,4.35,2.35,8.61,3.46,12.93a112.22,112.22,0,0,0,3.35,11c1.9,5.16,3.23,10.55,5.79,15.46a19.26,19.26,0,0,1,1.41,3.31,75.19,75.19,0,0,0,5.4,13c5,9.56,10,19.1,15.44,28.41,2.57,4.41,4.93,9,8.19,12.93,4,4.86,7.24,10.29,11.36,15.08,3.91,4.53,7.67,9.19,11.8,13.52a257.55,257.55,0,0,0,29.27,26.86c3.29,2.53,6.58,5.07,10,7.32,3.74,2.43,7.66,4.57,11.39,7a221.69,221.69,0,0,0,22.27,12.62c4.64,2.34,9.42,4.35,14.17,6.45,6.07,2.69,12.33,4.81,18.6,6.93,5.36,1.82,10.85,3.22,16.32,4.69,4.85,1.31,9.76,2.37,14.69,3.26,2.36.42,4.71.82,7,1.35.7.16,1.42.18,2.13.31,3.15.56,6.39.24,9.51,1a49.06,49.06,0,0,0,10.92,1.21C254.16,691.71,260.72,691.57,267.28,691.57Z" transform="translate(0 0.11)" fill="#b0afb0" /><path d="M267.28,691.57c-6.56,0-13.12.14-19.67-.05a49.06,49.06,0,0,1-10.92-1.21c-3.12-.8-6.36-.48-9.51-1-.71-.13-1.43-.15-2.13-.31-2.33-.53-4.68-.93-7-1.35-4.93-.89-9.84-2-14.69-3.26-5.47-1.47-11-2.87-16.32-4.69-6.27-2.12-12.53-4.24-18.6-6.93-4.75-2.1-9.53-4.11-14.17-6.45A221.69,221.69,0,0,1,132,653.66c-3.73-2.47-7.65-4.61-11.39-7-3.47-2.25-6.76-4.79-10-7.32a257.55,257.55,0,0,1-29.27-26.86c-4.13-4.33-7.89-9-11.8-13.52-4.12-4.79-7.36-10.22-11.36-15.08-3.26-4-5.62-8.52-8.19-12.93-5.44-9.31-10.46-18.85-15.44-28.41a75.19,75.19,0,0,1-5.4-13,19.26,19.26,0,0,0-1.41-3.31c-2.56-4.91-3.89-10.3-5.79-15.46a112.22,112.22,0,0,1-3.35-11c-1.11-4.32-2.49-8.58-3.46-12.93-1.63-7.3-3.16-14.63-4.5-22-1-5.48-1.72-11-2.37-16.55-.51-4.34-.79-8.72-1.17-13.09-1.2-13.63-1.1-27.29-.77-40.94a167.12,167.12,0,0,1,1.24-19.08c.53-3.86.69-7.78,1.09-11.66.26-2.45.6-4.9,1-7.34,1.08-6.67,2-13.39,3.37-20,2-9.68,4.07-19.33,6.83-28.84,2.56-8.81,5-17.67,8.08-26.3,3.9-10.9,8.1-21.67,12.78-32.27,3.14-7.1,6.55-14,10-21A353.08,353.08,0,0,1,68.21,197c2.9-4.59,5.83-9.15,8.85-13.66,3.82-5.71,7.75-11.33,12.11-16.63a38.82,38.82,0,0,1,14.75-11.56,37.26,37.26,0,0,1,11.3-2.9,27.35,27.35,0,0,1,19.1,5.39,24,24,0,0,1,6.89,7.58A34.33,34.33,0,0,1,146,183.41c-.11,3.1.22,6.22-.42,9.31a61.21,61.21,0,0,1-4.22,12.94,7.41,7.41,0,0,0-.76,2.5,3.74,3.74,0,0,0,1.92,4q6.6,3.84,13.07,7.89c4.05,2.52,8.34,4.67,12.14,7.61a38,38,0,0,0,4,2.07q12.56,7.22,24.83,14.9c1.61,1,3.38,1.77,4.93,2.85a95.15,95.15,0,0,0,8.61,5.21c1.53.83,3.18,1.54,4.29,3a.66.66,0,0,0,.4.25c3,.48,4.72,3.27,7.64,4.16,2.61.8,5,2.55,7.27,4.11s5,3,7.57,4.52c2.23,1.33,4.23,3,6.5,4.21,1.75.91,3.25,2.22,5.07,2.95a13.41,13.41,0,0,1,4.35,2.76,2.53,2.53,0,0,0,1.46.76,2.25,2.25,0,0,1,1.79,1,2,2,0,0,0,1.18.77,20,20,0,0,1,6.06,3.59,4.17,4.17,0,0,0,1,.65c5.9,2.17,11,5.85,16.32,9q15.33,9.13,30.75,18.11,10.54,6.15,21,12.48c7.08,4.32,14.14,8.67,21.4,12.7,5.78,3.21,11.33,6.85,17,10.25,3.77,2.25,7.6,4.4,11.39,6.61q9.31,5.42,18.62,10.86c4,2.34,7.9,4.85,12,7,4.47,2.36,8.86,4.88,13.17,7.51,2,1.23,4,2.57,6,3.77,2.41,1.44,5,2.69,7.41,4.1,2.89,1.68,5.8,3.29,8.56,5.2,2.31,1.61,5.06,2.58,7.42,4.12a96.7,96.7,0,0,0,9.55,5.75c4.11,2.06,8,4.49,12,6.77,3.76,2.15,7.34,4.61,11.09,6.79,4.75,2.74,9.32,5.82,14.19,8.33,6.7,3.45,12.81,7.87,19.44,11.44l1.27.67c1.15.56,2.47,1.52,3.59.8s2.76-1.62,3.21-3.31a1.8,1.8,0,0,1,.53-1.05c2.81-2.21,4.29-5.78,7.64-7.44,1.35-2.1,3.63-3.1,5.61-4.29a30.55,30.55,0,0,1,8.55-3.9c1.54-.37,3-1,4.56-1.34a31,31,0,0,1,14.67.34c7.45,2,12.81,6.62,16.87,12.86a20.43,20.43,0,0,1,2.74,6.57,83.65,83.65,0,0,1,1.6,8.44,16.82,16.82,0,0,1-.32,6.43c-1,3.68-1.38,7.46-2.65,11.13-.89,2.59-2.54,4.7-3.44,7.22a19.86,19.86,0,0,0-1.38,3.54c-.2,1.2-1.76,1.86-1.56,3.32-1.6,1.67-1.24,4.46-3.36,5.85a1.37,1.37,0,0,0-.44.83c-.43,2.32-2.11,4-3.06,6.06-3.16,6.83-7.27,13.14-11.09,19.6-3,5-6,10-9.38,14.72-1.11,1.53-2.19,3.07-3.34,4.56a37.58,37.58,0,0,0-2.86,4.22,21.07,21.07,0,0,1-3.41,4.76c-1.73,1.68-2.61,4-4.09,5.86-4.59,5.8-9,11.76-13.79,17.39-4.09,4.8-8.2,9.59-12.49,14.22S507.61,583.73,503,588c-5.33,5-10.35,10.22-15.87,15-6.71,5.77-13.53,11.41-20.52,16.85-7.74,6-15.79,11.63-24,17.07-8.5,5.68-17.3,10.86-26.3,15.72-5.28,2.85-10.7,5.39-16.1,8-6.63,3.17-13.29,6.27-20.13,8.94-5.94,2.32-11.92,4.55-18,6.6s-12.19,3.76-18.3,5.58c-4.12,1.24-8.34,2.17-12.53,3.06-5.37,1.14-10.65,2.82-16.19,3.05a7.75,7.75,0,0,0-1.88.38,33.71,33.71,0,0,1-8.49,1.34c-3.55.09-6.94.94-10.41,1.41a69,69,0,0,1-8.12.59c-6.32.08-12.64,0-19,0Zm-1-40.36h16.32c1.11,0,2.22-.18,3.33-.27,2.79-.21,5.5-.91,8.26-1.27,2.3-.31,4.63-.11,6.9-.63,5.82-1.34,11.76-2,17.59-3.36,5.11-1.21,10.22-2.44,15.31-3.74,2.79-.71,5.49-1.65,8.24-2.47s5.8-1.73,8.66-2.73c4-1.38,7.88-3.06,11.84-4.51,6.84-2.5,13.4-5.63,20-8.71,7.06-3.31,14-6.9,20.72-10.88s13.63-7.95,20.17-12.37c4.76-3.22,9.6-6.33,14.13-9.85,6.85-5.33,13.76-10.6,20.39-16.23C464.24,569,470,563.36,476,558c6.53-5.89,12.17-12.67,18.44-18.84a6,6,0,0,0,.49-.52c3.79-4.41,7.61-8.79,11.35-13.25,1.78-2.14,3.72-4.15,5.32-6.44a32.33,32.33,0,0,1,2.81-3.56c3.2-3.43,5.78-7.35,8.56-11.09,3-4.05,5.83-8.27,8.66-12.47,2.36-3.5,4.78-7,6.9-10.6,2.44-4.19,5.08-8.27,7.43-12.53,1.3-2.33.88-3.1-1.21-4.59-2.33-1.65-4.87-3-7.35-4.45-4.76-2.76-9.59-5.39-14.27-8.28-4.07-2.52-8.27-4.8-12.39-7.22-5.16-3-10.37-6-15.49-9.07-4.78-2.89-9.69-5.53-14.43-8.48S470.94,421,466.14,418s-9.52-5.5-14.18-8.45c-5.84-3.7-11.94-7-17.93-10.49l-12.64-7.3c-3.87-2.23-7.72-4.49-11.58-6.73-3.37-2-6.78-3.85-10.14-5.83-2.74-1.62-5.41-3.36-8.15-5-5.35-3.16-10.72-6.28-16.09-9.43-3.85-2.25-7.68-4.52-11.54-6.76-2.48-1.44-5.07-2.72-7.46-4.31-4.19-2.79-8.65-5.11-13-7.59-4.85-2.77-9.65-5.63-14.53-8.34-5.44-3-10.69-6.38-16-9.59q-11.47-6.91-23-13.82Q281,309,272,303.72c-4.94-2.92-10-5.71-14.84-8.76-5.75-3.6-11.57-7.07-17.38-10.56-10-6-19.85-12.2-29.94-18-8.49-4.9-16.76-10.2-25.25-15.1-5.81-3.35-11.56-6.79-17.28-10.26-8.59-5.21-17.26-10.29-25.81-15.56C131,219,120.25,212.8,109.6,206.51c-2.33-1.38-3.87-1-5.5,1.22a69.45,69.45,0,0,0-3.78,6.38c-2.25,3.85-4.63,7.64-6.64,11.61-4,7.9-7.87,15.88-11.66,23.88-2,4.33-3.89,8.75-5.71,13.18-2,4.79-3.72,9.68-5.62,14.5-2.88,7.37-5.3,14.89-7.61,22.43-2.73,8.91-5.22,17.9-7.21,27-1.09,5-2.23,9.95-3.1,15-.73,4.23-1.54,8.45-2.22,12.69q-.87,5.53-1.52,11.11c-.42,3.55-.54,7.15-1.09,10.68a140.91,140.91,0,0,0-1.23,18.11c-.3,11-.41,22,.34,33.05.2,2.86.28,5.76.64,8.58.61,4.81,1.08,9.64,1.68,14.45a233.18,233.18,0,0,0,4.2,23.24c3,12.89,6.33,25.7,11.37,38,1.79,4.35,3.14,8.88,5.22,13.12,4.5,9.17,9.79,17.92,14.53,27A30,30,0,0,0,87.94,557c4.56,5.54,8.34,11.64,13,17.13,4.34,5.12,8.82,10.08,13.37,15,2.54,2.75,5.35,5.24,8.12,7.79,4.23,3.89,8.78,7.38,13.22,11,6.75,5.53,14.56,9.46,21.92,14.06a150.49,150.49,0,0,0,17.1,9.11c3.69,1.68,7.36,3.41,11.12,4.94,3.93,1.59,7.94,2.91,11.89,4.44a136.39,136.39,0,0,0,15.61,4.5c5.31,1.36,10.73,2.32,16.1,3.48a36.26,36.26,0,0,0,6.38.87,40.84,40.84,0,0,1,6.62.89,43.64,43.64,0,0,0,9.25,1C256.51,651.17,261.39,651.21,266.27,651.21Z" transform="translate(0 0.11)" fill="#353223" /><path d="M266.27,651.21c-4.88,0-9.76,0-14.64,0a43.64,43.64,0,0,1-9.25-1,40.84,40.84,0,0,0-6.62-.89,36.26,36.26,0,0,1-6.38-.87c-5.37-1.16-10.79-2.12-16.1-3.48a136.39,136.39,0,0,1-15.61-4.5c-3.95-1.53-8-2.85-11.89-4.44-3.76-1.53-7.43-3.26-11.12-4.94a150.49,150.49,0,0,1-17.1-9.11c-7.36-4.6-15.17-8.53-21.92-14.06-4.44-3.64-9-7.13-13.22-11-2.77-2.55-5.58-5-8.12-7.79-4.55-4.92-9-9.88-13.37-15-4.65-5.49-8.43-11.59-13-17.13a30,30,0,0,1-3.25-5.29c-4.74-9-10-17.8-14.53-27-2.08-4.24-3.43-8.77-5.22-13.12-5-12.28-8.39-25.09-11.37-38a233.18,233.18,0,0,1-4.2-23.24c-.6-4.81-1.07-9.64-1.68-14.45-.36-2.82-.44-5.72-.64-8.58-.75-11-.64-22-.34-33.05a140.91,140.91,0,0,1,1.23-18.11c.55-3.53.67-7.13,1.09-10.68q.64-5.58,1.52-11.11c.68-4.24,1.49-8.46,2.22-12.69.87-5,2-10,3.1-15,2-9.11,4.48-18.1,7.21-27,2.31-7.54,4.73-15.06,7.61-22.43,1.9-4.82,3.65-9.71,5.62-14.5,1.82-4.43,3.66-8.85,5.71-13.18,3.79-8,7.65-16,11.66-23.88,2-4,4.39-7.76,6.64-11.61a69.45,69.45,0,0,1,3.78-6.38c1.63-2.2,3.17-2.6,5.5-1.22C120.25,212.8,131,219,141.51,225.45c8.55,5.27,17.22,10.35,25.81,15.56,5.72,3.47,11.47,6.91,17.28,10.26,8.49,4.9,16.76,10.2,25.25,15.1,10.09,5.83,20,12,29.94,18,5.81,3.49,11.63,7,17.38,10.56,4.87,3.05,9.9,5.84,14.84,8.76q9,5.31,17.89,10.67,11.5,6.89,23,13.82c5.33,3.21,10.58,6.58,16,9.59,4.88,2.71,9.68,5.57,14.53,8.34,4.36,2.48,8.82,4.8,13,7.59,2.39,1.59,5,2.87,7.46,4.31,3.86,2.24,7.69,4.51,11.54,6.76,5.37,3.15,10.74,6.27,16.09,9.43,2.74,1.62,5.41,3.36,8.15,5,3.36,2,6.77,3.88,10.14,5.83,3.86,2.24,7.71,4.5,11.58,6.73l12.64,7.3c6,3.47,12.09,6.79,17.93,10.49,4.66,2.95,9.5,5.55,14.18,8.45s9.86,5.57,14.66,8.56,9.65,5.59,14.43,8.48c5.12,3.1,10.33,6,15.49,9.07,4.12,2.42,8.32,4.7,12.39,7.22,4.68,2.89,9.51,5.52,14.27,8.28,2.48,1.44,5,2.8,7.35,4.45,2.09,1.49,2.51,2.26,1.21,4.59-2.35,4.26-5,8.34-7.43,12.53-2.12,3.65-4.54,7.1-6.9,10.6-2.83,4.2-5.65,8.42-8.66,12.47-2.78,3.74-5.36,7.66-8.56,11.09a32.33,32.33,0,0,0-2.81,3.56c-1.6,2.29-3.54,4.3-5.32,6.44-3.74,4.46-7.56,8.84-11.35,13.25a6,6,0,0,1-.49.52c-6.27,6.17-11.91,13-18.44,18.84-6,5.4-11.74,11-17.89,16.23-6.63,5.63-13.54,10.9-20.39,16.23-4.53,3.52-9.37,6.63-14.13,9.85-6.54,4.42-13.37,8.36-20.17,12.37s-13.66,7.57-20.72,10.88c-6.56,3.08-13.12,6.21-20,8.71-4,1.45-7.85,3.13-11.84,4.51-2.86,1-5.76,1.86-8.66,2.73s-5.45,1.76-8.24,2.47c-5.09,1.3-10.2,2.53-15.31,3.74-5.83,1.38-11.77,2-17.59,3.36-2.27.52-4.6.32-6.9.63-2.76.36-5.47,1.06-8.26,1.27-1.11.09-2.22.27-3.33.27Z" transform="translate(0 0.11)" fill="#b0afb0" /></g><g transform="translate(33.62,72.86) scale(0.2090)"><path d="M595.200,446.000a.89,.89,0,0,1,-.82,-1,27.21,27.21,0,0,0,-.49,-4c-1.28,-9.25,-5.53,-16.72,-13.29,-22a30.15,30.15,0,0,0,-12.18,-4.68,27.46,27.46,0,0,0,-10.91,.25c-1.88,.43,-3.64,1.14,-5.48,1.66a38.61,38.61,0,0,0,-14,7.63,46,46,0,0,0,-9.84,10.43c-1.26,2,-2.43,2.09,-4.46,.88,-2.68,-1.58,-5.37,-3.14,-8.06,-4.71,-6.27,-3.66,-12.53,-7.34,-18.81,-11q-8.07,-4.7,-16.16,-9.36c-6.22,-3.58,-12.48,-7.11,-18.69,-10.72,-5.59,-3.24,-11.12,-6.59,-16.7,-9.86,-6.4,-3.75,-12.84,-7.46,-19.24,-11.2,-3.79,-2.22,-7.54,-4.5,-11.34,-6.7,-5,-2.88,-10,-5.6,-14.93,-8.6,-5.86,-3.59,-11.8,-7,-17.78,-10.38,-6.55,-3.66,-12.91,-7.62,-19.42,-11.34,-3.94,-2.25,-7.85,-4.57,-11.74,-6.91,-3.55,-2.13,-7.35,-3.9,-10.61,-6.48,-3.59,-2.84,-7.64,-4.92,-11.49,-7.32,-5,-3.11,-10.16,-6,-15.24,-9,-3.64,-2.15,-7.22,-4.4,-10.91,-6.46,-6.34,-3.54,-12.52,-7.35,-18.74,-11.09q-6,-3.57,-11.9,-7.14c-2.19,-1.3,-4.43,-2.55,-6.61,-3.86,-5,-3,-9.95,-6.07,-14.94,-9.06s-10.31,-6.08,-15.45,-9.15c-4.73,-2.82,-9.42,-5.7,-14.15,-8.51,-6,-3.58,-12.11,-7.1,-18.07,-10.82,-4.81,-3,-9.67,-5.9,-14.52,-8.82,-5.95,-3.58,-11.92,-7.12,-17.88,-10.68l-11.71,-7c-4.52,-2.71,-9,-5.38,-13.53,-8.14,-2.2,-1.36,-2.46,-2.2,-1.35,-4.56,.92,-2,1.53,-4,2.32,-6,2.14,-5.38,2.28,-11,2.71,-16.67,.19,-2.6,-.56,-5.07,-1,-7.56a33.11,33.11,0,0,0,-3.87,-11.49c-.81,-1.32,-2,-2.24,-2.8,-3.56a20.56,20.56,0,0,0,-5.6,-5.82,28.14,28.14,0,0,0,-13.83,-5.52,31.47,31.47,0,0,0,-9.09,.09,41.42,41.42,0,0,0,-9.85,2.78c-2.23,1,-4.74,1.53,-6.21,3.78a1.62,1.62,0,0,1,-.81,.46c-2.34,.83,-3.32,3.42,-5.6,4.32,-.17,.06,-.28,.38,-.35,.6,-.42,1.3,-1.53,2,-2.45,2.89a20.14,20.14,0,0,0,-1.66,1.67,66.89,66.89,0,0,0,-5.14,7.17c-2.92,4.38,-6.06,8.61,-8.94,13,-4.11,6.27,-8,12.69,-11.8,19.13s-7.63,13.1,-11.09,19.85c-2.37,4.62,-4.71,9.27,-6.95,13.95,-1.83,3.81,-3.6,7.66,-5.23,11.56,-2.85,6.85,-5.7,13.7,-8.28,20.65,-2.42,6.5,-4.6,13.09,-6.78,19.68,-2,6.13,-3.65,12.38,-5.38,18.6s-3.26,12.48,-4.54,18.8c-1.34,6.62,-2.52,13.27,-3.75,19.92,-.88,4.77,-1.21,9.61,-2,14.41,-.64,4,-.55,8.1,-1.11,12.12A165.87,165.87,0,0,0,3.39,397c-.07,11,-.46,22,.34,33.07,.24,3.24,.45,6.51,.67,9.77,.13,2,.21,4,.48,5.95,.7,5,1.55,10.05,2.22,15.09,1,7.66,2.72,15.17,4.21,22.73,.89,4.46,2.33,8.77,3.39,13.17s2.35,8.67,3.51,13a128.93,128.93,0,0,0,5.48,15.29,15,15,0,0,0,1.74,3.89,8.42,8.42,0,0,1,1.41,3.51,10.16,10.16,0,0,0,.41,1.6c1.2,2.85,3,5.42,3.62,8.52a1.05,1.05,0,0,0,.41,.57,5.81,5.81,0,0,1,1.82,2.76c1.14,2.52,1.83,5.27,3.87,7.33,.3,.3,.33,.88,.48,1.33,.82,2.59,1.75,5.1,3.73,7.1a8.15,8.15,0,0,1,1.53,2.68,16,16,0,0,0,2.29,4,27.22,27.22,0,0,1,4.39,7.8A6.86,6.86,0,0,0,51,579c1.61,1.26,2.08,3.15,3.17,4.68,.55,.78,1.07,1.58,1.6,2.37,1,1.51,2.84,2.37,3.52,4.14a10,10,0,0,0,1.3,1.93c1.54,2.36,3.64,4.31,5,6.85a6.86,6.86,0,0,0,2.66,3,3.56,3.56,0,0,1,1.23,1.11,35.32,35.32,0,0,0,5.33,6.24,3,3,0,0,1,1,1.34,4.48,4.48,0,0,0,1.74,2.23,135.82,135.82,0,0,1,13.2,13.19c1.93,2.2,4.74,3.47,6.47,5.91,2.38,.78,3.16,3.61,5.57,4.35,1.08,2.31,4.11,2.39,5.27,4.6,3.42,1.91,6.09,4.86,9.45,6.79a41.09,41.09,0,0,0,5,3c2,.83,4.28,1.13,6.11,2.59,4.4,3.48,9.42,6,14.24,8.81,3.52,2,7.24,3.7,10.82,5.61,5,2.67,10.25,4.84,15.44,7.11,4.08,1.79,8.37,3.1,12.55,4.65,5.31,2,10.75,3.49,16.17,5.1,4.12,1.24,8.32,2.18,12.52,3.11,4.43,1,8.89,1.82,13.37,2.56,2.83,.47,5.72,.62,8.52,1.13a101.35,101.35,0,0,0,14.47,1.6c6.86,.25,13.73,.48,20.6,.58,4.38,.06,8.75,-.65,13.15,-.46a71.53,71.53,0,0,0,12.67,-.57c1.9,-.26,3.85,-.09,5.7,-.58a54.14,54.14,0,0,1,8.27,-1.16c4.85,-.49,9.64,-1.3,14.39,-2.26q11.7,-2.39,23.27,-5.38c2.49,-.65,4.81,-1.79,7.3,-2.31a104.17,104.17,0,0,0,14.79,-4.69c4.4,-1.63,8.83,-3.21,13.21,-4.92,6.77,-2.65,13.37,-5.68,19.95,-8.74,7.09,-3.3,14.06,-6.86,20.85,-10.77,7.95,-4.57,15.9,-9.15,23.5,-14.3,4.29,-2.92,8.74,-5.62,12.88,-8.72,5.61,-4.2,11.23,-8.4,16.66,-12.84C480,611,486,606,491.69,600.65c3.19,-3,6.77,-5.6,9.92,-8.65,3.91,-3.78,7.71,-7.67,11.55,-11.52A6.81,6.81,0,0,0,514.4,579a16.6,16.6,0,0,1,3.35,-4.32,131.87,131.87,0,0,0,9.39,-10.54c5.07,-6,10.11,-12.11,14.88,-18.4,5.44,-7.18,10.57,-14.58,15.66,-22A393.1,393.1,0,0,0,578,490c4.37,-8,8.45,-16.11,12,-24.47a46.61,46.61,0,0,0,2.37,-6,58.39,58.39,0,0,0,1.89,-10.32C594.39,448.56,594.47,448,595.2,447.93Z" transform="translate(0 0.11)" fill="#fff" /><path d="M595.2,447.93c-.73.09-.81.63-.86,1.22a58.39,58.39,0,0,1-1.89,10.32,46.61,46.61,0,0,1-2.37,6c-3.59,8.36-7.67,16.5-12,24.47a393.1,393.1,0,0,1-20.36,33.82c-5.09,7.42-10.22,14.82-15.66,22-4.77,6.29-9.81,12.36-14.88,18.4a131.87,131.87,0,0,1-9.39,10.54A16.6,16.6,0,0,0,514.4,579a6.81,6.81,0,0,1-1.24,1.45c-3.84,3.85-7.64,7.74-11.55,11.52-3.15,3-6.73,5.62-9.92,8.65C486,606,480,611,473.92,615.93c-5.43,4.44-11.05,8.64-16.66,12.84-4.14,3.1-8.59,5.8-12.88,8.72-7.6,5.15-15.55,9.73-23.5,14.3-6.79,3.91-13.76,7.47-20.85,10.77-6.58,3.06-13.18,6.09-19.95,8.74-4.38,1.71-8.81,3.29-13.21,4.92a104.17,104.17,0,0,1-14.79,4.69c-2.49.52-4.81,1.66-7.3,2.31q-11.55,3-23.27,5.38c-4.75,1-9.54,1.77-14.39,2.26a54.14,54.14,0,0,0-8.27,1.16c-1.85.49-3.8.32-5.7.58a71.53,71.53,0,0,1-12.67.57c-4.4-.19-8.77.52-13.15.46-6.87-.1-13.74-.33-20.6-.58a101.35,101.35,0,0,1-14.47-1.6c-2.8-.51-5.69-.66-8.52-1.13-4.48-.74-8.94-1.57-13.37-2.56-4.2-.93-8.4-1.87-12.52-3.11-5.42-1.61-10.86-3.13-16.17-5.1-4.18-1.55-8.47-2.86-12.55-4.65-5.19-2.27-10.42-4.44-15.44-7.11-3.58-1.91-7.3-3.57-10.82-5.61-4.82-2.82-9.84-5.33-14.24-8.81-1.83-1.46-4.07-1.76-6.11-2.59a41.09,41.09,0,0,1-5-3c-3.36-1.93-6-4.88-9.45-6.79-1.16-2.21-4.19-2.29-5.27-4.6-2.41-.74-3.19-3.57-5.57-4.35-1.73-2.44-4.54-3.71-6.47-5.91a135.82,135.82,0,0,0-13.2-13.19,4.48,4.48,0,0,1-1.74-2.23,3,3,0,0,0-1-1.34,35.32,35.32,0,0,1-5.33-6.24A3.56,3.56,0,0,0,68.24,602a6.86,6.86,0,0,1-2.66-3c-1.32-2.54-3.42-4.49-5-6.85a10,10,0,0,1-1.3-1.93c-.68-1.77-2.48-2.63-3.52-4.14-.53-.79-1-1.59-1.6-2.37-1.09-1.53-1.56-3.42-3.17-4.68a6.86,6.86,0,0,1-1.64-2.86,27.22,27.22,0,0,0-4.39-7.8,16,16,0,0,1-2.29-4,8.15,8.15,0,0,0-1.53-2.68c-2-2-2.91-4.51-3.73-7.1-.15-.45-.18-1-.48-1.33-2-2.06-2.73-4.81-3.87-7.33a5.81,5.81,0,0,0-1.82-2.76,1.05,1.05,0,0,1-.41-.57c-.59-3.1-2.42-5.67-3.62-8.52a10.16,10.16,0,0,1-.41-1.6,8.42,8.42,0,0,0-1.41-3.51,15,15,0,0,1-1.74-3.89,128.93,128.93,0,0,1-5.48-15.29c-1.16-4.34-2.45-8.64-3.51-13s-2.5-8.71-3.39-13.17C9.82,476,8.1,468.51,7.1,460.85c-.67-5-1.52-10.06-2.22-15.09-.27-2-.35-4-.48-5.95-.22-3.26-.43-6.53-.67-9.77C2.93,419,3.32,408,3.39,397a165.87,165.87,0,0,1,1.3-21.92c.56-4,.47-8.13,1.11-12.12.77-4.8,1.1-9.64,2-14.41,1.23-6.65,2.41-13.3,3.75-19.92,1.28-6.32,2.81-12.59,4.54-18.8s3.36-12.47,5.38-18.6c2.18-6.59,4.36-13.18,6.78-19.68,2.58-6.95,5.43-13.8,8.28-20.65,1.63-3.9,3.4-7.75,5.23-11.56,2.24-4.68,4.58-9.33,6.95-13.95,3.46-6.75,7.21-13.33,11.09-19.85s7.69-12.86,11.8-19.13c2.88-4.4,6-8.63,8.94-13a66.89,66.89,0,0,1,5.14-7.17,20.14,20.14,0,0,1,1.66-1.67c.92-.86,2-1.59,2.45-2.89.07-.22.18-.54.35-.6,2.28-.9,3.26-3.49,5.6-4.32a1.62,1.62,0,0,0,.81-.46c1.47-2.25,4-2.79,6.21-3.78a41.42,41.42,0,0,1,9.85-2.78,31.47,31.47,0,0,1,9.09-.09,28.14,28.14,0,0,1,13.83,5.52,20.56,20.56,0,0,1,5.6,5.82c.76,1.32,2,2.24,2.8,3.56A33.11,33.11,0,0,1,147.78,176c.47,2.49,1.22,5,1,7.56-.43,5.63-.57,11.29-2.71,16.67-.79,2-1.4,4.05-2.32,6-1.11,2.36-.85,3.2,1.35,4.56,4.48,2.76,9,5.43,13.53,8.14l11.71,7c6,3.56,11.93,7.1,17.88,10.68,4.85,2.92,9.71,5.82,14.52,8.82,6,3.72,12,7.24,18.07,10.82,4.73,2.81,9.42,5.69,14.15,8.51,5.14,3.07,10.31,6.08,15.45,9.15s9.95,6,14.94,9.06c2.18,1.31,4.42,2.56,6.61,3.86q6,3.56,11.9,7.14c6.22,3.74,12.4,7.55,18.74,11.09,3.69,2.06,7.27,4.31,10.91,6.46,5.08,3,10.22,5.91,15.24,9,3.85,2.4,7.9,4.48,11.49,7.32,3.26,2.58,7.06,4.35,10.61,6.48,3.89,2.34,7.8,4.66,11.74,6.91,6.51,3.72,12.87,7.68,19.42,11.34,6,3.35,11.92,6.79,17.78,10.38,4.89,3,10,5.72,14.93,8.6,3.8,2.2,7.55,4.48,11.34,6.7,6.4,3.74,12.84,7.45,19.24,11.2,5.58,3.27,11.11,6.62,16.7,9.86,6.21,3.61,12.47,7.14,18.69,10.72q8.1,4.65,16.16,9.36c6.28,3.65,12.54,7.33,18.81,11,2.69,1.57,5.38,3.13,8.06,4.71,2,1.21,3.2,1.09,4.46-.88a46,46,0,0,1,9.84-10.43,38.61,38.61,0,0,1,14-7.63c1.84-.52,3.6-1.23,5.48-1.66a27.46,27.46,0,0,1,10.91-.25,30.15,30.15,0,0,1,12.18,4.68c7.76,5.32,12,12.79,13.29,22a27.21,27.21,0,0,1,.49,4,.89.89,0,0,0,.82,1ZM267.28,691.57h0c6.32,0,12.64.06,19,0a69,69,0,0,0,8.12-.59c3.47-.47,6.86-1.32,10.41-1.41a33.71,33.71,0,0,0,8.49-1.34,7.75,7.75,0,0,1,1.88-.38c5.54-.23,10.82-1.91,16.19-3.05,4.19-.89,8.41-1.82,12.53-3.06,6.11-1.82,12.26-3.52,18.3-5.58s12-4.28,18-6.6c6.84-2.67,13.5-5.77,20.13-8.94,5.4-2.59,10.82-5.13,16.1-8,9-4.86,17.8-10,26.3-15.72,8.16-5.44,16.21-11,24-17.07,7-5.44,13.81-11.08,20.52-16.85,5.52-4.74,10.54-10,15.87-15,4.62-4.3,8.78-9.06,13.07-13.69s8.4-9.42,12.49-14.22c4.78-5.63,9.2-11.59,13.79-17.39,1.48-1.87,2.36-4.18,4.09-5.86a21.07,21.07,0,0,0,3.41-4.76,37.58,37.58,0,0,1,2.86-4.22c1.15-1.49,2.23-3,3.34-4.56,3.41-4.73,6.42-9.72,9.38-14.72,3.82-6.46,7.93-12.77,11.09-19.6,1-2.05,2.63-3.74,3.06-6.06a1.37,1.37,0,0,1,.44-.83c2.12-1.39,1.76-4.18,3.36-5.85-.2-1.46,1.36-2.12,1.56-3.32a19.86,19.86,0,0,1,1.38-3.54c.9-2.52,2.55-4.63,3.44-7.22,1.27-3.67,1.67-7.45,2.65-11.13a16.82,16.82,0,0,0,.32-6.43,83.65,83.65,0,0,0-1.6-8.44,20.43,20.43,0,0,0-2.74-6.57c-4.06-6.24-9.42-10.85-16.87-12.86a31,31,0,0,0-14.67-.34c-1.55.31-3,1-4.56,1.34a30.55,30.55,0,0,0-8.55,3.9c-2,1.19-4.26,2.19-5.61,4.29-3.35,1.66-4.83,5.23-7.64,7.44a1.8,1.8,0,0,0-.53,1.05c-.45,1.69-2,2.51-3.21,3.31s-2.44-.24-3.59-.8l-1.27-.67c-6.63-3.57-12.74-8-19.44-11.44-4.87-2.51-9.44-5.59-14.19-8.33-3.75-2.18-7.33-4.64-11.09-6.79-4-2.28-7.87-4.71-12-6.77a96.7,96.7,0,0,1-9.55-5.75c-2.36-1.54-5.11-2.51-7.42-4.12-2.76-1.91-5.67-3.52-8.56-5.2-2.44-1.41-5-2.66-7.41-4.1-2-1.2-4-2.54-6-3.77-4.31-2.63-8.7-5.15-13.17-7.51-4.09-2.16-8-4.67-12-7q-9.3-5.44-18.62-10.86c-3.79-2.21-7.62-4.36-11.39-6.61-5.68-3.4-11.23-7-17-10.25-7.26-4-14.32-8.38-21.4-12.7s-14-8.38-21-12.48q-15.4-9-30.75-18.11c-5.34-3.17-10.42-6.85-16.32-9a4.17,4.17,0,0,1-1-.65,20,20,0,0,0-6.06-3.59,2,2,0,0,1-1.18-.77,2.25,2.25,0,0,0-1.79-1,2.53,2.53,0,0,1-1.46-.76,13.41,13.41,0,0,0-4.35-2.76c-1.82-.73-3.32-2-5.07-2.95-2.27-1.18-4.27-2.88-6.5-4.21-2.52-1.51-5.13-2.87-7.57-4.52s-4.66-3.31-7.27-4.11c-2.92-.89-4.63-3.68-7.64-4.16a.66.66,0,0,1-.4-.25c-1.11-1.45-2.76-2.16-4.29-3a95.15,95.15,0,0,1-8.61-5.21c-1.55-1.08-3.32-1.84-4.93-2.85q-12.27-7.68-24.83-14.9a38,38,0,0,1-4-2.07c-3.8-2.94-8.09-5.09-12.14-7.61q-6.48-4-13.07-7.89a3.74,3.74,0,0,1-1.92-4,7.41,7.41,0,0,1,.76-2.5,61.21,61.21,0,0,0,4.22-12.94c.64-3.09.31-6.21.42-9.31a34.33,34.33,0,0,0-4.77-18.19,24,24,0,0,0-6.89-7.58,27.35,27.35,0,0,0-19.1-5.39,37.26,37.26,0,0,0-11.3,2.9,38.82,38.82,0,0,0-14.75,11.56c-4.36,5.3-8.29,10.92-12.11,16.63-3,4.51-6,9.07-8.85,13.66a353.08,353.08,0,0,0-17.58,30.76c-3.46,6.92-6.87,13.87-10,21-4.68,10.6-8.88,21.37-12.78,32.27-3.1,8.63-5.52,17.49-8.08,26.3-2.76,9.51-4.85,19.16-6.83,28.84-1.36,6.62-2.29,13.34-3.37,20-.39,2.44-.73,4.89-1,7.34-.4,3.88-.56,7.8-1.09,11.66a167.12,167.12,0,0,0-1.24,19.08c-.33,13.65-.43,27.31.77,40.94.38,4.37.66,8.75,1.17,13.09.65,5.54,1.38,11.07,2.37,16.55,1.34,7.36,2.87,14.69,4.5,22,1,4.35,2.35,8.61,3.46,12.93a112.22,112.22,0,0,0,3.35,11c1.9,5.16,3.23,10.55,5.79,15.46a19.26,19.26,0,0,1,1.41,3.31,75.19,75.19,0,0,0,5.4,13c5,9.56,10,19.1,15.44,28.41,2.57,4.41,4.93,9,8.19,12.93,4,4.86,7.24,10.29,11.36,15.08,3.91,4.53,7.67,9.19,11.8,13.52a257.55,257.55,0,0,0,29.27,26.86c3.29,2.53,6.58,5.07,10,7.32,3.74,2.43,7.66,4.57,11.39,7a221.69,221.69,0,0,0,22.27,12.62c4.64,2.34,9.42,4.35,14.17,6.45,6.07,2.69,12.33,4.81,18.6,6.93,5.36,1.82,10.85,3.22,16.32,4.69,4.85,1.31,9.76,2.37,14.69,3.26,2.36.42,4.71.82,7,1.35.7.16,1.42.18,2.13.31,3.15.56,6.39.24,9.51,1a49.06,49.06,0,0,0,10.92,1.21C254.16,691.71,260.72,691.57,267.28,691.57Z" transform="translate(0 0.11)" fill="#b0afb0" /><path d="M267.28,691.57c-6.56,0-13.12.14-19.67-.05a49.06,49.06,0,0,1-10.92-1.21c-3.12-.8-6.36-.48-9.51-1-.71-.13-1.43-.15-2.13-.31-2.33-.53-4.68-.93-7-1.35-4.93-.89-9.84-2-14.69-3.26-5.47-1.47-11-2.87-16.32-4.69-6.27-2.12-12.53-4.24-18.6-6.93-4.75-2.1-9.53-4.11-14.17-6.45A221.69,221.69,0,0,1,132,653.66c-3.73-2.47-7.65-4.61-11.39-7-3.47-2.25-6.76-4.79-10-7.32a257.55,257.55,0,0,1-29.27-26.86c-4.13-4.33-7.89-9-11.8-13.52-4.12-4.79-7.36-10.22-11.36-15.08-3.26-4-5.62-8.52-8.19-12.93-5.44-9.31-10.46-18.85-15.44-28.41a75.19,75.19,0,0,1-5.4-13,19.26,19.26,0,0,0-1.41-3.31c-2.56-4.91-3.89-10.3-5.79-15.46a112.22,112.22,0,0,1-3.35-11c-1.11-4.32-2.49-8.58-3.46-12.93-1.63-7.3-3.16-14.63-4.5-22-1-5.48-1.72-11-2.37-16.55-.51-4.34-.79-8.72-1.17-13.09-1.2-13.63-1.1-27.29-.77-40.94a167.12,167.12,0,0,1,1.24-19.08c.53-3.86.69-7.78,1.09-11.66.26-2.45.6-4.9,1-7.34,1.08-6.67,2-13.39,3.37-20,2-9.68,4.07-19.33,6.83-28.84,2.56-8.81,5-17.67,8.08-26.3,3.9-10.9,8.1-21.67,12.78-32.27,3.14-7.1,6.55-14,10-21A353.08,353.08,0,0,1,68.21,197c2.9-4.59,5.83-9.15,8.85-13.66,3.82-5.71,7.75-11.33,12.11-16.63a38.82,38.82,0,0,1,14.75-11.56,37.26,37.26,0,0,1,11.3-2.9,27.35,27.35,0,0,1,19.1,5.39,24,24,0,0,1,6.89,7.58A34.33,34.33,0,0,1,146,183.41c-.11,3.1.22,6.22-.42,9.31a61.21,61.21,0,0,1-4.22,12.94,7.41,7.41,0,0,0-.76,2.5,3.74,3.74,0,0,0,1.92,4q6.6,3.84,13.07,7.89c4.05,2.52,8.34,4.67,12.14,7.61a38,38,0,0,0,4,2.07q12.56,7.22,24.83,14.9c1.61,1,3.38,1.77,4.93,2.85a95.15,95.15,0,0,0,8.61,5.21c1.53.83,3.18,1.54,4.29,3a.66.66,0,0,0,.4.25c3,.48,4.72,3.27,7.64,4.16,2.61.8,5,2.55,7.27,4.11s5,3,7.57,4.52c2.23,1.33,4.23,3,6.5,4.21,1.75.91,3.25,2.22,5.07,2.95a13.41,13.41,0,0,1,4.35,2.76,2.53,2.53,0,0,0,1.46.76,2.25,2.25,0,0,1,1.79,1,2,2,0,0,0,1.18.77,20,20,0,0,1,6.06,3.59,4.17,4.17,0,0,0,1,.65c5.9,2.17,11,5.85,16.32,9q15.33,9.13,30.75,18.11,10.54,6.15,21,12.48c7.08,4.32,14.14,8.67,21.4,12.7,5.78,3.21,11.33,6.85,17,10.25,3.77,2.25,7.6,4.4,11.39,6.61q9.31,5.42,18.62,10.86c4,2.34,7.9,4.85,12,7,4.47,2.36,8.86,4.88,13.17,7.51,2,1.23,4,2.57,6,3.77,2.41,1.44,5,2.69,7.41,4.1,2.89,1.68,5.8,3.29,8.56,5.2,2.31,1.61,5.06,2.58,7.42,4.12a96.7,96.7,0,0,0,9.55,5.75c4.11,2.06,8,4.49,12,6.77,3.76,2.15,7.34,4.61,11.09,6.79,4.75,2.74,9.32,5.82,14.19,8.33,6.7,3.45,12.81,7.87,19.44,11.44l1.27.67c1.15.56,2.47,1.52,3.59.8s2.76-1.62,3.21-3.31a1.8,1.8,0,0,1,.53-1.05c2.81-2.21,4.29-5.78,7.64-7.44,1.35-2.1,3.63-3.1,5.61-4.29a30.55,30.55,0,0,1,8.55-3.9c1.54-.37,3-1,4.56-1.34a31,31,0,0,1,14.67.34c7.45,2,12.81,6.62,16.87,12.86a20.43,20.43,0,0,1,2.74,6.57,83.65,83.65,0,0,1,1.6,8.44,16.82,16.82,0,0,1-.32,6.43c-1,3.68-1.38,7.46-2.65,11.13-.89,2.59-2.54,4.7-3.44,7.22a19.86,19.86,0,0,0-1.38,3.54c-.2,1.2-1.76,1.86-1.56,3.32-1.6,1.67-1.24,4.46-3.36,5.85a1.37,1.37,0,0,0-.44.83c-.43,2.32-2.11,4-3.06,6.06-3.16,6.83-7.27,13.14-11.09,19.6-3,5-6,10-9.38,14.72-1.11,1.53-2.19,3.07-3.34,4.56a37.58,37.58,0,0,0-2.86,4.22,21.07,21.07,0,0,1-3.41,4.76c-1.73,1.68-2.61,4-4.09,5.86-4.59,5.8-9,11.76-13.79,17.39-4.09,4.8-8.2,9.59-12.49,14.22S507.61,583.73,503,588c-5.33,5-10.35,10.22-15.87,15-6.71,5.77-13.53,11.41-20.52,16.85-7.74,6-15.79,11.63-24,17.07-8.5,5.68-17.3,10.86-26.3,15.72-5.28,2.85-10.7,5.39-16.1,8-6.63,3.17-13.29,6.27-20.13,8.94-5.94,2.32-11.92,4.55-18,6.6s-12.19,3.76-18.3,5.58c-4.12,1.24-8.34,2.17-12.53,3.06-5.37,1.14-10.65,2.82-16.19,3.05a7.75,7.75,0,0,0-1.88.38,33.71,33.71,0,0,1-8.49,1.34c-3.55.09-6.94.94-10.41,1.41a69,69,0,0,1-8.12.59c-6.32.08-12.64,0-19,0Zm-1-40.36h16.32c1.11,0,2.22-.18,3.33-.27,2.79-.21,5.5-.91,8.26-1.27,2.3-.31,4.63-.11,6.9-.63,5.82-1.34,11.76-2,17.59-3.36,5.11-1.21,10.22-2.44,15.31-3.74,2.79-.71,5.49-1.65,8.24-2.47s5.8-1.73,8.66-2.73c4-1.38,7.88-3.06,11.84-4.51,6.84-2.5,13.4-5.63,20-8.71,7.06-3.31,14-6.9,20.72-10.88s13.63-7.95,20.17-12.37c4.76-3.22,9.6-6.33,14.13-9.85,6.85-5.33,13.76-10.6,20.39-16.23C464.24,569,470,563.36,476,558c6.53-5.89,12.17-12.67,18.44-18.84a6,6,0,0,0,.49-.52c3.79-4.41,7.61-8.79,11.35-13.25,1.78-2.14,3.72-4.15,5.32-6.44a32.33,32.33,0,0,1,2.81-3.56c3.2-3.43,5.78-7.35,8.56-11.09,3-4.05,5.83-8.27,8.66-12.47,2.36-3.5,4.78-7,6.9-10.6,2.44-4.19,5.08-8.27,7.43-12.53,1.3-2.33.88-3.1-1.21-4.59-2.33-1.65-4.87-3-7.35-4.45-4.76-2.76-9.59-5.39-14.27-8.28-4.07-2.52-8.27-4.8-12.39-7.22-5.16-3-10.37-6-15.49-9.07-4.78-2.89-9.69-5.53-14.43-8.48S470.94,421,466.14,418s-9.52-5.5-14.18-8.45c-5.84-3.7-11.94-7-17.93-10.49l-12.64-7.3c-3.87-2.23-7.72-4.49-11.58-6.73-3.37-2-6.78-3.85-10.14-5.83-2.74-1.62-5.41-3.36-8.15-5-5.35-3.16-10.72-6.28-16.09-9.43-3.85-2.25-7.68-4.52-11.54-6.76-2.48-1.44-5.07-2.72-7.46-4.31-4.19-2.79-8.65-5.11-13-7.59-4.85-2.77-9.65-5.63-14.53-8.34-5.44-3-10.69-6.38-16-9.59q-11.47-6.91-23-13.82Q281,309,272,303.72c-4.94-2.92-10-5.71-14.84-8.76-5.75-3.6-11.57-7.07-17.38-10.56-10-6-19.85-12.2-29.94-18-8.49-4.9-16.76-10.2-25.25-15.1-5.81-3.35-11.56-6.79-17.28-10.26-8.59-5.21-17.26-10.29-25.81-15.56C131,219,120.25,212.8,109.6,206.51c-2.33-1.38-3.87-1-5.5,1.22a69.45,69.45,0,0,0-3.78,6.38c-2.25,3.85-4.63,7.64-6.64,11.61-4,7.9-7.87,15.88-11.66,23.88-2,4.33-3.89,8.75-5.71,13.18-2,4.79-3.72,9.68-5.62,14.5-2.88,7.37-5.3,14.89-7.61,22.43-2.73,8.91-5.22,17.9-7.21,27-1.09,5-2.23,9.95-3.1,15-.73,4.23-1.54,8.45-2.22,12.69q-.87,5.53-1.52,11.11c-.42,3.55-.54,7.15-1.09,10.68a140.91,140.91,0,0,0-1.23,18.11c-.3,11-.41,22,.34,33.05.2,2.86.28,5.76.64,8.58.61,4.81,1.08,9.64,1.68,14.45a233.18,233.18,0,0,0,4.2,23.24c3,12.89,6.33,25.7,11.37,38,1.79,4.35,3.14,8.88,5.22,13.12,4.5,9.17,9.79,17.92,14.53,27A30,30,0,0,0,87.94,557c4.56,5.54,8.34,11.64,13,17.13,4.34,5.12,8.82,10.08,13.37,15,2.54,2.75,5.35,5.24,8.12,7.79,4.23,3.89,8.78,7.38,13.22,11,6.75,5.53,14.56,9.46,21.92,14.06a150.49,150.49,0,0,0,17.1,9.11c3.69,1.68,7.36,3.41,11.12,4.94,3.93,1.59,7.94,2.91,11.89,4.44a136.39,136.39,0,0,0,15.61,4.5c5.31,1.36,10.73,2.32,16.1,3.48a36.26,36.26,0,0,0,6.38.87,40.84,40.84,0,0,1,6.62.89,43.64,43.64,0,0,0,9.25,1C256.51,651.17,261.39,651.21,266.27,651.21Z" transform="translate(0 0.11)" fill="#353223" /><path d="M266.27,651.21c-4.88,0-9.76,0-14.64,0a43.64,43.64,0,0,1-9.25-1,40.84,40.84,0,0,0-6.62-.89,36.26,36.26,0,0,1-6.38-.87c-5.37-1.16-10.79-2.12-16.1-3.48a136.39,136.39,0,0,1-15.61-4.5c-3.95-1.53-8-2.85-11.89-4.44-3.76-1.53-7.43-3.26-11.12-4.94a150.49,150.49,0,0,1-17.1-9.11c-7.36-4.6-15.17-8.53-21.92-14.06-4.44-3.64-9-7.13-13.22-11-2.77-2.55-5.58-5-8.12-7.79-4.55-4.92-9-9.88-13.37-15-4.65-5.49-8.43-11.59-13-17.13a30,30,0,0,1-3.25-5.29c-4.74-9-10-17.8-14.53-27-2.08-4.24-3.43-8.77-5.22-13.12-5-12.28-8.39-25.09-11.37-38a233.18,233.18,0,0,1-4.2-23.24c-.6-4.81-1.07-9.64-1.68-14.45-.36-2.82-.44-5.72-.64-8.58-.75-11-.64-22-.34-33.05a140.91,140.91,0,0,1,1.23-18.11c.55-3.53.67-7.13,1.09-10.68q.64-5.58,1.52-11.11c.68-4.24,1.49-8.46,2.22-12.69.87-5,2-10,3.1-15,2-9.11,4.48-18.1,7.21-27,2.31-7.54,4.73-15.06,7.61-22.43,1.9-4.82,3.65-9.71,5.62-14.5,1.82-4.43,3.66-8.85,5.71-13.18,3.79-8,7.65-16,11.66-23.88,2-4,4.39-7.76,6.64-11.61a69.45,69.45,0,0,1,3.78-6.38c1.63-2.2,3.17-2.6,5.5-1.22C120.25,212.8,131,219,141.51,225.45c8.55,5.27,17.22,10.35,25.81,15.56,5.72,3.47,11.47,6.91,17.28,10.26,8.49,4.9,16.76,10.2,25.25,15.1,10.09,5.83,20,12,29.94,18,5.81,3.49,11.63,7,17.38,10.56,4.87,3.05,9.9,5.84,14.84,8.76q9,5.31,17.89,10.67,11.5,6.89,23,13.82c5.33,3.21,10.58,6.58,16,9.59,4.88,2.71,9.68,5.57,14.53,8.34,4.36,2.48,8.82,4.8,13,7.59,2.39,1.59,5,2.87,7.46,4.31,3.86,2.24,7.69,4.51,11.54,6.76,5.37,3.15,10.74,6.27,16.09,9.43,2.74,1.62,5.41,3.36,8.15,5,3.36,2,6.77,3.88,10.14,5.83,3.86,2.24,7.71,4.5,11.58,6.73l12.64,7.3c6,3.47,12.09,6.79,17.93,10.49,4.66,2.95,9.5,5.55,14.18,8.45s9.86,5.57,14.66,8.56,9.65,5.59,14.43,8.48c5.12,3.1,10.33,6,15.49,9.07,4.12,2.42,8.32,4.7,12.39,7.22,4.68,2.89,9.51,5.52,14.27,8.28,2.48,1.44,5,2.8,7.35,4.45,2.09,1.49,2.51,2.26,1.21,4.59-2.35,4.26-5,8.34-7.43,12.53-2.12,3.65-4.54,7.1-6.9,10.6-2.83,4.2-5.65,8.42-8.66,12.47-2.78,3.74-5.36,7.66-8.56,11.09a32.33,32.33,0,0,0-2.81,3.56c-1.6,2.29-3.54,4.3-5.32,6.44-3.74,4.46-7.56,8.84-11.35,13.25a6,6,0,0,1-.49.52c-6.27,6.17-11.91,13-18.44,18.84-6,5.4-11.74,11-17.89,16.23-6.63,5.63-13.54,10.9-20.39,16.23-4.53,3.52-9.37,6.63-14.13,9.85-6.54,4.42-13.37,8.36-20.17,12.37s-13.66,7.57-20.72,10.88c-6.56,3.08-13.12,6.21-20,8.71-4,1.45-7.85,3.13-11.84,4.51-2.86,1-5.76,1.86-8.66,2.73s-5.45,1.76-8.24,2.47c-5.09,1.3-10.2,2.53-15.31,3.74-5.83,1.38-11.77,2-17.59,3.36-2.27.52-4.6.32-6.9.63-2.76.36-5.47,1.06-8.26,1.27-1.11.09-2.22.27-3.33.27Z" transform="translate(0 0.11)" fill="#b0afb0" /></g><g transform="translate(-44.38,-4.54) scale(0.2090)"><path d="M595.200,446.000a.89,.89,0,0,1,-.82,-1,27.21,27.21,0,0,0,-.49,-4c-1.28,-9.25,-5.53,-16.72,-13.29,-22a30.15,30.15,0,0,0,-12.18,-4.68,27.46,27.46,0,0,0,-10.91,.25c-1.88,.43,-3.64,1.14,-5.48,1.66a38.61,38.61,0,0,0,-14,7.63,46,46,0,0,0,-9.84,10.43c-1.26,2,-2.43,2.09,-4.46,.88,-2.68,-1.58,-5.37,-3.14,-8.06,-4.71,-6.27,-3.66,-12.53,-7.34,-18.81,-11q-8.07,-4.7,-16.16,-9.36c-6.22,-3.58,-12.48,-7.11,-18.69,-10.72,-5.59,-3.24,-11.12,-6.59,-16.7,-9.86,-6.4,-3.75,-12.84,-7.46,-19.24,-11.2,-3.79,-2.22,-7.54,-4.5,-11.34,-6.7,-5,-2.88,-10,-5.6,-14.93,-8.6,-5.86,-3.59,-11.8,-7,-17.78,-10.38,-6.55,-3.66,-12.91,-7.62,-19.42,-11.34,-3.94,-2.25,-7.85,-4.57,-11.74,-6.91,-3.55,-2.13,-7.35,-3.9,-10.61,-6.48,-3.59,-2.84,-7.64,-4.92,-11.49,-7.32,-5,-3.11,-10.16,-6,-15.24,-9,-3.64,-2.15,-7.22,-4.4,-10.91,-6.46,-6.34,-3.54,-12.52,-7.35,-18.74,-11.09q-6,-3.57,-11.9,-7.14c-2.19,-1.3,-4.43,-2.55,-6.61,-3.86,-5,-3,-9.95,-6.07,-14.94,-9.06s-10.31,-6.08,-15.45,-9.15c-4.73,-2.82,-9.42,-5.7,-14.15,-8.51,-6,-3.58,-12.11,-7.1,-18.07,-10.82,-4.81,-3,-9.67,-5.9,-14.52,-8.82,-5.95,-3.58,-11.92,-7.12,-17.88,-10.68l-11.71,-7c-4.52,-2.71,-9,-5.38,-13.53,-8.14,-2.2,-1.36,-2.46,-2.2,-1.35,-4.56,.92,-2,1.53,-4,2.32,-6,2.14,-5.38,2.28,-11,2.71,-16.67,.19,-2.6,-.56,-5.07,-1,-7.56a33.11,33.11,0,0,0,-3.87,-11.49c-.81,-1.32,-2,-2.24,-2.8,-3.56a20.56,20.56,0,0,0,-5.6,-5.82,28.14,28.14,0,0,0,-13.83,-5.52,31.47,31.47,0,0,0,-9.09,.09,41.42,41.42,0,0,0,-9.85,2.78c-2.23,1,-4.74,1.53,-6.21,3.78a1.62,1.62,0,0,1,-.81,.46c-2.34,.83,-3.32,3.42,-5.6,4.32,-.17,.06,-.28,.38,-.35,.6,-.42,1.3,-1.53,2,-2.45,2.89a20.14,20.14,0,0,0,-1.66,1.67,66.89,66.89,0,0,0,-5.14,7.17c-2.92,4.38,-6.06,8.61,-8.94,13,-4.11,6.27,-8,12.69,-11.8,19.13s-7.63,13.1,-11.09,19.85c-2.37,4.62,-4.71,9.27,-6.95,13.95,-1.83,3.81,-3.6,7.66,-5.23,11.56,-2.85,6.85,-5.7,13.7,-8.28,20.65,-2.42,6.5,-4.6,13.09,-6.78,19.68,-2,6.13,-3.65,12.38,-5.38,18.6s-3.26,12.48,-4.54,18.8c-1.34,6.62,-2.52,13.27,-3.75,19.92,-.88,4.77,-1.21,9.61,-2,14.41,-.64,4,-.55,8.1,-1.11,12.12A165.87,165.87,0,0,0,3.39,397c-.07,11,-.46,22,.34,33.07,.24,3.24,.45,6.51,.67,9.77,.13,2,.21,4,.48,5.95,.7,5,1.55,10.05,2.22,15.09,1,7.66,2.72,15.17,4.21,22.73,.89,4.46,2.33,8.77,3.39,13.17s2.35,8.67,3.51,13a128.93,128.93,0,0,0,5.48,15.29,15,15,0,0,0,1.74,3.89,8.42,8.42,0,0,1,1.41,3.51,10.16,10.16,0,0,0,.41,1.6c1.2,2.85,3,5.42,3.62,8.52a1.05,1.05,0,0,0,.41,.57,5.81,5.81,0,0,1,1.82,2.76c1.14,2.52,1.83,5.27,3.87,7.33,.3,.3,.33,.88,.48,1.33,.82,2.59,1.75,5.1,3.73,7.1a8.15,8.15,0,0,1,1.53,2.68,16,16,0,0,0,2.29,4,27.22,27.22,0,0,1,4.39,7.8A6.86,6.86,0,0,0,51,579c1.61,1.26,2.08,3.15,3.17,4.68,.55,.78,1.07,1.58,1.6,2.37,1,1.51,2.84,2.37,3.52,4.14a10,10,0,0,0,1.3,1.93c1.54,2.36,3.64,4.31,5,6.85a6.86,6.86,0,0,0,2.66,3,3.56,3.56,0,0,1,1.23,1.11,35.32,35.32,0,0,0,5.33,6.24,3,3,0,0,1,1,1.34,4.48,4.48,0,0,0,1.74,2.23,135.82,135.82,0,0,1,13.2,13.19c1.93,2.2,4.74,3.47,6.47,5.91,2.38,.78,3.16,3.61,5.57,4.35,1.08,2.31,4.11,2.39,5.27,4.6,3.42,1.91,6.09,4.86,9.45,6.79a41.09,41.09,0,0,0,5,3c2,.83,4.28,1.13,6.11,2.59,4.4,3.48,9.42,6,14.24,8.81,3.52,2,7.24,3.7,10.82,5.61,5,2.67,10.25,4.84,15.44,7.11,4.08,1.79,8.37,3.1,12.55,4.65,5.31,2,10.75,3.49,16.17,5.1,4.12,1.24,8.32,2.18,12.52,3.11,4.43,1,8.89,1.82,13.37,2.56,2.83,.47,5.72,.62,8.52,1.13a101.35,101.35,0,0,0,14.47,1.6c6.86,.25,13.73,.48,20.6,.58,4.38,.06,8.75,-.65,13.15,-.46a71.53,71.53,0,0,0,12.67,-.57c1.9,-.26,3.85,-.09,5.7,-.58a54.14,54.14,0,0,1,8.27,-1.16c4.85,-.49,9.64,-1.3,14.39,-2.26q11.7,-2.39,23.27,-5.38c2.49,-.65,4.81,-1.79,7.3,-2.31a104.17,104.17,0,0,0,14.79,-4.69c4.4,-1.63,8.83,-3.21,13.21,-4.92,6.77,-2.65,13.37,-5.68,19.95,-8.74,7.09,-3.3,14.06,-6.86,20.85,-10.77,7.95,-4.57,15.9,-9.15,23.5,-14.3,4.29,-2.92,8.74,-5.62,12.88,-8.72,5.61,-4.2,11.23,-8.4,16.66,-12.84C480,611,486,606,491.69,600.65c3.19,-3,6.77,-5.6,9.92,-8.65,3.91,-3.78,7.71,-7.67,11.55,-11.52A6.81,6.81,0,0,0,514.4,579a16.6,16.6,0,0,1,3.35,-4.32,131.87,131.87,0,0,0,9.39,-10.54c5.07,-6,10.11,-12.11,14.88,-18.4,5.44,-7.18,10.57,-14.58,15.66,-22A393.1,393.1,0,0,0,578,490c4.37,-8,8.45,-16.11,12,-24.47a46.61,46.61,0,0,0,2.37,-6,58.39,58.39,0,0,0,1.89,-10.32C594.39,448.56,594.47,448,595.2,447.93Z" transform="translate(0 0.11)" fill="#fff" /><path d="M595.2,447.93c-.73.09-.81.63-.86,1.22a58.39,58.39,0,0,1-1.89,10.32,46.61,46.61,0,0,1-2.37,6c-3.59,8.36-7.67,16.5-12,24.47a393.1,393.1,0,0,1-20.36,33.82c-5.09,7.42-10.22,14.82-15.66,22-4.77,6.29-9.81,12.36-14.88,18.4a131.87,131.87,0,0,1-9.39,10.54A16.6,16.6,0,0,0,514.4,579a6.81,6.81,0,0,1-1.24,1.45c-3.84,3.85-7.64,7.74-11.55,11.52-3.15,3-6.73,5.62-9.92,8.65C486,606,480,611,473.92,615.93c-5.43,4.44-11.05,8.64-16.66,12.84-4.14,3.1-8.59,5.8-12.88,8.72-7.6,5.15-15.55,9.73-23.5,14.3-6.79,3.91-13.76,7.47-20.85,10.77-6.58,3.06-13.18,6.09-19.95,8.74-4.38,1.71-8.81,3.29-13.21,4.92a104.17,104.17,0,0,1-14.79,4.69c-2.49.52-4.81,1.66-7.3,2.31q-11.55,3-23.27,5.38c-4.75,1-9.54,1.77-14.39,2.26a54.14,54.14,0,0,0-8.27,1.16c-1.85.49-3.8.32-5.7.58a71.53,71.53,0,0,1-12.67.57c-4.4-.19-8.77.52-13.15.46-6.87-.1-13.74-.33-20.6-.58a101.35,101.35,0,0,1-14.47-1.6c-2.8-.51-5.69-.66-8.52-1.13-4.48-.74-8.94-1.57-13.37-2.56-4.2-.93-8.4-1.87-12.52-3.11-5.42-1.61-10.86-3.13-16.17-5.1-4.18-1.55-8.47-2.86-12.55-4.65-5.19-2.27-10.42-4.44-15.44-7.11-3.58-1.91-7.3-3.57-10.82-5.61-4.82-2.82-9.84-5.33-14.24-8.81-1.83-1.46-4.07-1.76-6.11-2.59a41.09,41.09,0,0,1-5-3c-3.36-1.93-6-4.88-9.45-6.79-1.16-2.21-4.19-2.29-5.27-4.6-2.41-.74-3.19-3.57-5.57-4.35-1.73-2.44-4.54-3.71-6.47-5.91a135.82,135.82,0,0,0-13.2-13.19,4.48,4.48,0,0,1-1.74-2.23,3,3,0,0,0-1-1.34,35.32,35.32,0,0,1-5.33-6.24A3.56,3.56,0,0,0,68.24,602a6.86,6.86,0,0,1-2.66-3c-1.32-2.54-3.42-4.49-5-6.85a10,10,0,0,1-1.3-1.93c-.68-1.77-2.48-2.63-3.52-4.14-.53-.79-1-1.59-1.6-2.37-1.09-1.53-1.56-3.42-3.17-4.68a6.86,6.86,0,0,1-1.64-2.86,27.22,27.22,0,0,0-4.39-7.8,16,16,0,0,1-2.29-4,8.15,8.15,0,0,0-1.53-2.68c-2-2-2.91-4.51-3.73-7.1-.15-.45-.18-1-.48-1.33-2-2.06-2.73-4.81-3.87-7.33a5.81,5.81,0,0,0-1.82-2.76,1.05,1.05,0,0,1-.41-.57c-.59-3.1-2.42-5.67-3.62-8.52a10.16,10.16,0,0,1-.41-1.6,8.42,8.42,0,0,0-1.41-3.51,15,15,0,0,1-1.74-3.89,128.93,128.93,0,0,1-5.48-15.29c-1.16-4.34-2.45-8.64-3.51-13s-2.5-8.71-3.39-13.17C9.82,476,8.1,468.51,7.1,460.85c-.67-5-1.52-10.06-2.22-15.09-.27-2-.35-4-.48-5.95-.22-3.26-.43-6.53-.67-9.77C2.93,419,3.32,408,3.39,397a165.87,165.87,0,0,1,1.3-21.92c.56-4,.47-8.13,1.11-12.12.77-4.8,1.1-9.64,2-14.41,1.23-6.65,2.41-13.3,3.75-19.92,1.28-6.32,2.81-12.59,4.54-18.8s3.36-12.47,5.38-18.6c2.18-6.59,4.36-13.18,6.78-19.68,2.58-6.95,5.43-13.8,8.28-20.65,1.63-3.9,3.4-7.75,5.23-11.56,2.24-4.68,4.58-9.33,6.95-13.95,3.46-6.75,7.21-13.33,11.09-19.85s7.69-12.86,11.8-19.13c2.88-4.4,6-8.63,8.94-13a66.89,66.89,0,0,1,5.14-7.17,20.14,20.14,0,0,1,1.66-1.67c.92-.86,2-1.59,2.45-2.89.07-.22.18-.54.35-.6,2.28-.9,3.26-3.49,5.6-4.32a1.62,1.62,0,0,0,.81-.46c1.47-2.25,4-2.79,6.21-3.78a41.42,41.42,0,0,1,9.85-2.78,31.47,31.47,0,0,1,9.09-.09,28.14,28.14,0,0,1,13.83,5.52,20.56,20.56,0,0,1,5.6,5.82c.76,1.32,2,2.24,2.8,3.56A33.11,33.11,0,0,1,147.78,176c.47,2.49,1.22,5,1,7.56-.43,5.63-.57,11.29-2.71,16.67-.79,2-1.4,4.05-2.32,6-1.11,2.36-.85,3.2,1.35,4.56,4.48,2.76,9,5.43,13.53,8.14l11.71,7c6,3.56,11.93,7.1,17.88,10.68,4.85,2.92,9.71,5.82,14.52,8.82,6,3.72,12,7.24,18.07,10.82,4.73,2.81,9.42,5.69,14.15,8.51,5.14,3.07,10.31,6.08,15.45,9.15s9.95,6,14.94,9.06c2.18,1.31,4.42,2.56,6.61,3.86q6,3.56,11.9,7.14c6.22,3.74,12.4,7.55,18.74,11.09,3.69,2.06,7.27,4.31,10.91,6.46,5.08,3,10.22,5.91,15.24,9,3.85,2.4,7.9,4.48,11.49,7.32,3.26,2.58,7.06,4.35,10.61,6.48,3.89,2.34,7.8,4.66,11.74,6.91,6.51,3.72,12.87,7.68,19.42,11.34,6,3.35,11.92,6.79,17.78,10.38,4.89,3,10,5.72,14.93,8.6,3.8,2.2,7.55,4.48,11.34,6.7,6.4,3.74,12.84,7.45,19.24,11.2,5.58,3.27,11.11,6.62,16.7,9.86,6.21,3.61,12.47,7.14,18.69,10.72q8.1,4.65,16.16,9.36c6.28,3.65,12.54,7.33,18.81,11,2.69,1.57,5.38,3.13,8.06,4.71,2,1.21,3.2,1.09,4.46-.88a46,46,0,0,1,9.84-10.43,38.61,38.61,0,0,1,14-7.63c1.84-.52,3.6-1.23,5.48-1.66a27.46,27.46,0,0,1,10.91-.25,30.15,30.15,0,0,1,12.18,4.68c7.76,5.32,12,12.79,13.29,22a27.21,27.21,0,0,1,.49,4,.89.89,0,0,0,.82,1ZM267.28,691.57h0c6.32,0,12.64.06,19,0a69,69,0,0,0,8.12-.59c3.47-.47,6.86-1.32,10.41-1.41a33.71,33.71,0,0,0,8.49-1.34,7.75,7.75,0,0,1,1.88-.38c5.54-.23,10.82-1.91,16.19-3.05,4.19-.89,8.41-1.82,12.53-3.06,6.11-1.82,12.26-3.52,18.3-5.58s12-4.28,18-6.6c6.84-2.67,13.5-5.77,20.13-8.94,5.4-2.59,10.82-5.13,16.1-8,9-4.86,17.8-10,26.3-15.72,8.16-5.44,16.21-11,24-17.07,7-5.44,13.81-11.08,20.52-16.85,5.52-4.74,10.54-10,15.87-15,4.62-4.3,8.78-9.06,13.07-13.69s8.4-9.42,12.49-14.22c4.78-5.63,9.2-11.59,13.79-17.39,1.48-1.87,2.36-4.18,4.09-5.86a21.07,21.07,0,0,0,3.41-4.76,37.58,37.58,0,0,1,2.86-4.22c1.15-1.49,2.23-3,3.34-4.56,3.41-4.73,6.42-9.72,9.38-14.72,3.82-6.46,7.93-12.77,11.09-19.6,1-2.05,2.63-3.74,3.06-6.06a1.37,1.37,0,0,1,.44-.83c2.12-1.39,1.76-4.18,3.36-5.85-.2-1.46,1.36-2.12,1.56-3.32a19.86,19.86,0,0,1,1.38-3.54c.9-2.52,2.55-4.63,3.44-7.22,1.27-3.67,1.67-7.45,2.65-11.13a16.82,16.82,0,0,0,.32-6.43,83.65,83.65,0,0,0-1.6-8.44,20.43,20.43,0,0,0-2.74-6.57c-4.06-6.24-9.42-10.85-16.87-12.86a31,31,0,0,0-14.67-.34c-1.55.31-3,1-4.56,1.34a30.55,30.55,0,0,0-8.55,3.9c-2,1.19-4.26,2.19-5.61,4.29-3.35,1.66-4.83,5.23-7.64,7.44a1.8,1.8,0,0,0-.53,1.05c-.45,1.69-2,2.51-3.21,3.31s-2.44-.24-3.59-.8l-1.27-.67c-6.63-3.57-12.74-8-19.44-11.44-4.87-2.51-9.44-5.59-14.19-8.33-3.75-2.18-7.33-4.64-11.09-6.79-4-2.28-7.87-4.71-12-6.77a96.7,96.7,0,0,1-9.55-5.75c-2.36-1.54-5.11-2.51-7.42-4.12-2.76-1.91-5.67-3.52-8.56-5.2-2.44-1.41-5-2.66-7.41-4.1-2-1.2-4-2.54-6-3.77-4.31-2.63-8.7-5.15-13.17-7.51-4.09-2.16-8-4.67-12-7q-9.3-5.44-18.62-10.86c-3.79-2.21-7.62-4.36-11.39-6.61-5.68-3.4-11.23-7-17-10.25-7.26-4-14.32-8.38-21.4-12.7s-14-8.38-21-12.48q-15.4-9-30.75-18.11c-5.34-3.17-10.42-6.85-16.32-9a4.17,4.17,0,0,1-1-.65,20,20,0,0,0-6.06-3.59,2,2,0,0,1-1.18-.77,2.25,2.25,0,0,0-1.79-1,2.53,2.53,0,0,1-1.46-.76,13.41,13.41,0,0,0-4.35-2.76c-1.82-.73-3.32-2-5.07-2.95-2.27-1.18-4.27-2.88-6.5-4.21-2.52-1.51-5.13-2.87-7.57-4.52s-4.66-3.31-7.27-4.11c-2.92-.89-4.63-3.68-7.64-4.16a.66.66,0,0,1-.4-.25c-1.11-1.45-2.76-2.16-4.29-3a95.15,95.15,0,0,1-8.61-5.21c-1.55-1.08-3.32-1.84-4.93-2.85q-12.27-7.68-24.83-14.9a38,38,0,0,1-4-2.07c-3.8-2.94-8.09-5.09-12.14-7.61q-6.48-4-13.07-7.89a3.74,3.74,0,0,1-1.92-4,7.41,7.41,0,0,1,.76-2.5,61.21,61.21,0,0,0,4.22-12.94c.64-3.09.31-6.21.42-9.31a34.33,34.33,0,0,0-4.77-18.19,24,24,0,0,0-6.89-7.58,27.35,27.35,0,0,0-19.1-5.39,37.26,37.26,0,0,0-11.3,2.9,38.82,38.82,0,0,0-14.75,11.56c-4.36,5.3-8.29,10.92-12.11,16.63-3,4.51-6,9.07-8.85,13.66a353.08,353.08,0,0,0-17.58,30.76c-3.46,6.92-6.87,13.87-10,21-4.68,10.6-8.88,21.37-12.78,32.27-3.1,8.63-5.52,17.49-8.08,26.3-2.76,9.51-4.85,19.16-6.83,28.84-1.36,6.62-2.29,13.34-3.37,20-.39,2.44-.73,4.89-1,7.34-.4,3.88-.56,7.8-1.09,11.66a167.12,167.12,0,0,0-1.24,19.08c-.33,13.65-.43,27.31.77,40.94.38,4.37.66,8.75,1.17,13.09.65,5.54,1.38,11.07,2.37,16.55,1.34,7.36,2.87,14.69,4.5,22,1,4.35,2.35,8.61,3.46,12.93a112.22,112.22,0,0,0,3.35,11c1.9,5.16,3.23,10.55,5.79,15.46a19.26,19.26,0,0,1,1.41,3.31,75.19,75.19,0,0,0,5.4,13c5,9.56,10,19.1,15.44,28.41,2.57,4.41,4.93,9,8.19,12.93,4,4.86,7.24,10.29,11.36,15.08,3.91,4.53,7.67,9.19,11.8,13.52a257.55,257.55,0,0,0,29.27,26.86c3.29,2.53,6.58,5.07,10,7.32,3.74,2.43,7.66,4.57,11.39,7a221.69,221.69,0,0,0,22.27,12.62c4.64,2.34,9.42,4.35,14.17,6.45,6.07,2.69,12.33,4.81,18.6,6.93,5.36,1.82,10.85,3.22,16.32,4.69,4.85,1.31,9.76,2.37,14.69,3.26,2.36.42,4.71.82,7,1.35.7.16,1.42.18,2.13.31,3.15.56,6.39.24,9.51,1a49.06,49.06,0,0,0,10.92,1.21C254.16,691.71,260.72,691.57,267.28,691.57Z" transform="translate(0 0.11)" fill="#b0afb0" /><path d="M267.28,691.57c-6.56,0-13.12.14-19.67-.05a49.06,49.06,0,0,1-10.92-1.21c-3.12-.8-6.36-.48-9.51-1-.71-.13-1.43-.15-2.13-.31-2.33-.53-4.68-.93-7-1.35-4.93-.89-9.84-2-14.69-3.26-5.47-1.47-11-2.87-16.32-4.69-6.27-2.12-12.53-4.24-18.6-6.93-4.75-2.1-9.53-4.11-14.17-6.45A221.69,221.69,0,0,1,132,653.66c-3.73-2.47-7.65-4.61-11.39-7-3.47-2.25-6.76-4.79-10-7.32a257.55,257.55,0,0,1-29.27-26.86c-4.13-4.33-7.89-9-11.8-13.52-4.12-4.79-7.36-10.22-11.36-15.08-3.26-4-5.62-8.52-8.19-12.93-5.44-9.31-10.46-18.85-15.44-28.41a75.19,75.19,0,0,1-5.4-13,19.26,19.26,0,0,0-1.41-3.31c-2.56-4.91-3.89-10.3-5.79-15.46a112.22,112.22,0,0,1-3.35-11c-1.11-4.32-2.49-8.58-3.46-12.93-1.63-7.3-3.16-14.63-4.5-22-1-5.48-1.72-11-2.37-16.55-.51-4.34-.79-8.72-1.17-13.09-1.2-13.63-1.1-27.29-.77-40.94a167.12,167.12,0,0,1,1.24-19.08c.53-3.86.69-7.78,1.09-11.66.26-2.45.6-4.9,1-7.34,1.08-6.67,2-13.39,3.37-20,2-9.68,4.07-19.33,6.83-28.84,2.56-8.81,5-17.67,8.08-26.3,3.9-10.9,8.1-21.67,12.78-32.27,3.14-7.1,6.55-14,10-21A353.08,353.08,0,0,1,68.21,197c2.9-4.59,5.83-9.15,8.85-13.66,3.82-5.71,7.75-11.33,12.11-16.63a38.82,38.82,0,0,1,14.75-11.56,37.26,37.26,0,0,1,11.3-2.9,27.35,27.35,0,0,1,19.1,5.39,24,24,0,0,1,6.89,7.58A34.33,34.33,0,0,1,146,183.41c-.11,3.1.22,6.22-.42,9.31a61.21,61.21,0,0,1-4.22,12.94,7.41,7.41,0,0,0-.76,2.5,3.74,3.74,0,0,0,1.92,4q6.6,3.84,13.07,7.89c4.05,2.52,8.34,4.67,12.14,7.61a38,38,0,0,0,4,2.07q12.56,7.22,24.83,14.9c1.61,1,3.38,1.77,4.93,2.85a95.15,95.15,0,0,0,8.61,5.21c1.53.83,3.18,1.54,4.29,3a.66.66,0,0,0,.4.25c3,.48,4.72,3.27,7.64,4.16,2.61.8,5,2.55,7.27,4.11s5,3,7.57,4.52c2.23,1.33,4.23,3,6.5,4.21,1.75.91,3.25,2.22,5.07,2.95a13.41,13.41,0,0,1,4.35,2.76,2.53,2.53,0,0,0,1.46.76,2.25,2.25,0,0,1,1.79,1,2,2,0,0,0,1.18.77,20,20,0,0,1,6.06,3.59,4.17,4.17,0,0,0,1,.65c5.9,2.17,11,5.85,16.32,9q15.33,9.13,30.75,18.11,10.54,6.15,21,12.48c7.08,4.32,14.14,8.67,21.4,12.7,5.78,3.21,11.33,6.85,17,10.25,3.77,2.25,7.6,4.4,11.39,6.61q9.31,5.42,18.62,10.86c4,2.34,7.9,4.85,12,7,4.47,2.36,8.86,4.88,13.17,7.51,2,1.23,4,2.57,6,3.77,2.41,1.44,5,2.69,7.41,4.1,2.89,1.68,5.8,3.29,8.56,5.2,2.31,1.61,5.06,2.58,7.42,4.12a96.7,96.7,0,0,0,9.55,5.75c4.11,2.06,8,4.49,12,6.77,3.76,2.15,7.34,4.61,11.09,6.79,4.75,2.74,9.32,5.82,14.19,8.33,6.7,3.45,12.81,7.87,19.44,11.44l1.27.67c1.15.56,2.47,1.52,3.59.8s2.76-1.62,3.21-3.31a1.8,1.8,0,0,1,.53-1.05c2.81-2.21,4.29-5.78,7.64-7.44,1.35-2.1,3.63-3.1,5.61-4.29a30.55,30.55,0,0,1,8.55-3.9c1.54-.37,3-1,4.56-1.34a31,31,0,0,1,14.67.34c7.45,2,12.81,6.62,16.87,12.86a20.43,20.43,0,0,1,2.74,6.57,83.65,83.65,0,0,1,1.6,8.44,16.82,16.82,0,0,1-.32,6.43c-1,3.68-1.38,7.46-2.65,11.13-.89,2.59-2.54,4.7-3.44,7.22a19.86,19.86,0,0,0-1.38,3.54c-.2,1.2-1.76,1.86-1.56,3.32-1.6,1.67-1.24,4.46-3.36,5.85a1.37,1.37,0,0,0-.44.83c-.43,2.32-2.11,4-3.06,6.06-3.16,6.83-7.27,13.14-11.09,19.6-3,5-6,10-9.38,14.72-1.11,1.53-2.19,3.07-3.34,4.56a37.58,37.58,0,0,0-2.86,4.22,21.07,21.07,0,0,1-3.41,4.76c-1.73,1.68-2.61,4-4.09,5.86-4.59,5.8-9,11.76-13.79,17.39-4.09,4.8-8.2,9.59-12.49,14.22S507.61,583.73,503,588c-5.33,5-10.35,10.22-15.87,15-6.71,5.77-13.53,11.41-20.52,16.85-7.74,6-15.79,11.63-24,17.07-8.5,5.68-17.3,10.86-26.3,15.72-5.28,2.85-10.7,5.39-16.1,8-6.63,3.17-13.29,6.27-20.13,8.94-5.94,2.32-11.92,4.55-18,6.6s-12.19,3.76-18.3,5.58c-4.12,1.24-8.34,2.17-12.53,3.06-5.37,1.14-10.65,2.82-16.19,3.05a7.75,7.75,0,0,0-1.88.38,33.71,33.71,0,0,1-8.49,1.34c-3.55.09-6.94.94-10.41,1.41a69,69,0,0,1-8.12.59c-6.32.08-12.64,0-19,0Zm-1-40.36h16.32c1.11,0,2.22-.18,3.33-.27,2.79-.21,5.5-.91,8.26-1.27,2.3-.31,4.63-.11,6.9-.63,5.82-1.34,11.76-2,17.59-3.36,5.11-1.21,10.22-2.44,15.31-3.74,2.79-.71,5.49-1.65,8.24-2.47s5.8-1.73,8.66-2.73c4-1.38,7.88-3.06,11.84-4.51,6.84-2.5,13.4-5.63,20-8.71,7.06-3.31,14-6.9,20.72-10.88s13.63-7.95,20.17-12.37c4.76-3.22,9.6-6.33,14.13-9.85,6.85-5.33,13.76-10.6,20.39-16.23C464.24,569,470,563.36,476,558c6.53-5.89,12.17-12.67,18.44-18.84a6,6,0,0,0,.49-.52c3.79-4.41,7.61-8.79,11.35-13.25,1.78-2.14,3.72-4.15,5.32-6.44a32.33,32.33,0,0,1,2.81-3.56c3.2-3.43,5.78-7.35,8.56-11.09,3-4.05,5.83-8.27,8.66-12.47,2.36-3.5,4.78-7,6.9-10.6,2.44-4.19,5.08-8.27,7.43-12.53,1.3-2.33.88-3.1-1.21-4.59-2.33-1.65-4.87-3-7.35-4.45-4.76-2.76-9.59-5.39-14.27-8.28-4.07-2.52-8.27-4.8-12.39-7.22-5.16-3-10.37-6-15.49-9.07-4.78-2.89-9.69-5.53-14.43-8.48S470.94,421,466.14,418s-9.52-5.5-14.18-8.45c-5.84-3.7-11.94-7-17.93-10.49l-12.64-7.3c-3.87-2.23-7.72-4.49-11.58-6.73-3.37-2-6.78-3.85-10.14-5.83-2.74-1.62-5.41-3.36-8.15-5-5.35-3.16-10.72-6.28-16.09-9.43-3.85-2.25-7.68-4.52-11.54-6.76-2.48-1.44-5.07-2.72-7.46-4.31-4.19-2.79-8.65-5.11-13-7.59-4.85-2.77-9.65-5.63-14.53-8.34-5.44-3-10.69-6.38-16-9.59q-11.47-6.91-23-13.82Q281,309,272,303.72c-4.94-2.92-10-5.71-14.84-8.76-5.75-3.6-11.57-7.07-17.38-10.56-10-6-19.85-12.2-29.94-18-8.49-4.9-16.76-10.2-25.25-15.1-5.81-3.35-11.56-6.79-17.28-10.26-8.59-5.21-17.26-10.29-25.81-15.56C131,219,120.25,212.8,109.6,206.51c-2.33-1.38-3.87-1-5.5,1.22a69.45,69.45,0,0,0-3.78,6.38c-2.25,3.85-4.63,7.64-6.64,11.61-4,7.9-7.87,15.88-11.66,23.88-2,4.33-3.89,8.75-5.71,13.18-2,4.79-3.72,9.68-5.62,14.5-2.88,7.37-5.3,14.89-7.61,22.43-2.73,8.91-5.22,17.9-7.21,27-1.09,5-2.23,9.95-3.1,15-.73,4.23-1.54,8.45-2.22,12.69q-.87,5.53-1.52,11.11c-.42,3.55-.54,7.15-1.09,10.68a140.91,140.91,0,0,0-1.23,18.11c-.3,11-.41,22,.34,33.05.2,2.86.28,5.76.64,8.58.61,4.81,1.08,9.64,1.68,14.45a233.18,233.18,0,0,0,4.2,23.24c3,12.89,6.33,25.7,11.37,38,1.79,4.35,3.14,8.88,5.22,13.12,4.5,9.17,9.79,17.92,14.53,27A30,30,0,0,0,87.94,557c4.56,5.54,8.34,11.64,13,17.13,4.34,5.12,8.82,10.08,13.37,15,2.54,2.75,5.35,5.24,8.12,7.79,4.23,3.89,8.78,7.38,13.22,11,6.75,5.53,14.56,9.46,21.92,14.06a150.49,150.49,0,0,0,17.1,9.11c3.69,1.68,7.36,3.41,11.12,4.94,3.93,1.59,7.94,2.91,11.89,4.44a136.39,136.39,0,0,0,15.61,4.5c5.31,1.36,10.73,2.32,16.1,3.48a36.26,36.26,0,0,0,6.38.87,40.84,40.84,0,0,1,6.62.89,43.64,43.64,0,0,0,9.25,1C256.51,651.17,261.39,651.21,266.27,651.21Z" transform="translate(0 0.11)" fill="#353223" /><path d="M266.27,651.21c-4.88,0-9.76,0-14.64,0a43.64,43.64,0,0,1-9.25-1,40.84,40.84,0,0,0-6.62-.89,36.26,36.26,0,0,1-6.38-.87c-5.37-1.16-10.79-2.12-16.1-3.48a136.39,136.39,0,0,1-15.61-4.5c-3.95-1.53-8-2.85-11.89-4.44-3.76-1.53-7.43-3.26-11.12-4.94a150.49,150.49,0,0,1-17.1-9.11c-7.36-4.6-15.17-8.53-21.92-14.06-4.44-3.64-9-7.13-13.22-11-2.77-2.55-5.58-5-8.12-7.79-4.55-4.92-9-9.88-13.37-15-4.65-5.49-8.43-11.59-13-17.13a30,30,0,0,1-3.25-5.29c-4.74-9-10-17.8-14.53-27-2.08-4.24-3.43-8.77-5.22-13.12-5-12.28-8.39-25.09-11.37-38a233.18,233.18,0,0,1-4.2-23.24c-.6-4.81-1.07-9.64-1.68-14.45-.36-2.82-.44-5.72-.64-8.58-.75-11-.64-22-.34-33.05a140.91,140.91,0,0,1,1.23-18.11c.55-3.53.67-7.13,1.09-10.68q.64-5.58,1.52-11.11c.68-4.24,1.49-8.46,2.22-12.69.87-5,2-10,3.1-15,2-9.11,4.48-18.1,7.21-27,2.31-7.54,4.73-15.06,7.61-22.43,1.9-4.82,3.65-9.71,5.62-14.5,1.82-4.43,3.66-8.85,5.71-13.18,3.79-8,7.65-16,11.66-23.88,2-4,4.39-7.76,6.64-11.61a69.45,69.45,0,0,1,3.78-6.38c1.63-2.2,3.17-2.6,5.5-1.22C120.25,212.8,131,219,141.51,225.45c8.55,5.27,17.22,10.35,25.81,15.56,5.72,3.47,11.47,6.91,17.28,10.26,8.49,4.9,16.76,10.2,25.25,15.1,10.09,5.83,20,12,29.94,18,5.81,3.49,11.63,7,17.38,10.56,4.87,3.05,9.9,5.84,14.84,8.76q9,5.31,17.89,10.67,11.5,6.89,23,13.82c5.33,3.21,10.58,6.58,16,9.59,4.88,2.71,9.68,5.57,14.53,8.34,4.36,2.48,8.82,4.8,13,7.59,2.39,1.59,5,2.87,7.46,4.31,3.86,2.24,7.69,4.51,11.54,6.76,5.37,3.15,10.74,6.27,16.09,9.43,2.74,1.62,5.41,3.36,8.15,5,3.36,2,6.77,3.88,10.14,5.83,3.86,2.24,7.71,4.5,11.58,6.73l12.64,7.3c6,3.47,12.09,6.79,17.93,10.49,4.66,2.95,9.5,5.55,14.18,8.45s9.86,5.57,14.66,8.56,9.65,5.59,14.43,8.48c5.12,3.1,10.33,6,15.49,9.07,4.12,2.42,8.32,4.7,12.39,7.22,4.68,2.89,9.51,5.52,14.27,8.28,2.48,1.44,5,2.8,7.35,4.45,2.09,1.49,2.51,2.26,1.21,4.59-2.35,4.26-5,8.34-7.43,12.53-2.12,3.65-4.54,7.1-6.9,10.6-2.83,4.2-5.65,8.42-8.66,12.47-2.78,3.74-5.36,7.66-8.56,11.09a32.33,32.33,0,0,0-2.81,3.56c-1.6,2.29-3.54,4.3-5.32,6.44-3.74,4.46-7.56,8.84-11.35,13.25a6,6,0,0,1-.49.52c-6.27,6.17-11.91,13-18.44,18.84-6,5.4-11.74,11-17.89,16.23-6.63,5.63-13.54,10.9-20.39,16.23-4.53,3.52-9.37,6.63-14.13,9.85-6.54,4.42-13.37,8.36-20.17,12.37s-13.66,7.57-20.72,10.88c-6.56,3.08-13.12,6.21-20,8.71-4,1.45-7.85,3.13-11.84,4.51-2.86,1-5.76,1.86-8.66,2.73s-5.45,1.76-8.24,2.47c-5.09,1.3-10.2,2.53-15.31,3.74-5.83,1.38-11.77,2-17.59,3.36-2.27.52-4.6.32-6.9.63-2.76.36-5.47,1.06-8.26,1.27-1.11.09-2.22.27-3.33.27Z" transform="translate(0 0.11)" fill="#b0afb0" /></g><g transform="translate(111.62,-4.54) scale(0.2090)"><path d="M595.200,446.000a.89,.89,0,0,1,-.82,-1,27.21,27.21,0,0,0,-.49,-4c-1.28,-9.25,-5.53,-16.72,-13.29,-22a30.15,30.15,0,0,0,-12.18,-4.68,27.46,27.46,0,0,0,-10.91,.25c-1.88,.43,-3.64,1.14,-5.48,1.66a38.61,38.61,0,0,0,-14,7.63,46,46,0,0,0,-9.84,10.43c-1.26,2,-2.43,2.09,-4.46,.88,-2.68,-1.58,-5.37,-3.14,-8.06,-4.71,-6.27,-3.66,-12.53,-7.34,-18.81,-11q-8.07,-4.7,-16.16,-9.36c-6.22,-3.58,-12.48,-7.11,-18.69,-10.72,-5.59,-3.24,-11.12,-6.59,-16.7,-9.86,-6.4,-3.75,-12.84,-7.46,-19.24,-11.2,-3.79,-2.22,-7.54,-4.5,-11.34,-6.7,-5,-2.88,-10,-5.6,-14.93,-8.6,-5.86,-3.59,-11.8,-7,-17.78,-10.38,-6.55,-3.66,-12.91,-7.62,-19.42,-11.34,-3.94,-2.25,-7.85,-4.57,-11.74,-6.91,-3.55,-2.13,-7.35,-3.9,-10.61,-6.48,-3.59,-2.84,-7.64,-4.92,-11.49,-7.32,-5,-3.11,-10.16,-6,-15.24,-9,-3.64,-2.15,-7.22,-4.4,-10.91,-6.46,-6.34,-3.54,-12.52,-7.35,-18.74,-11.09q-6,-3.57,-11.9,-7.14c-2.19,-1.3,-4.43,-2.55,-6.61,-3.86,-5,-3,-9.95,-6.07,-14.94,-9.06s-10.31,-6.08,-15.45,-9.15c-4.73,-2.82,-9.42,-5.7,-14.15,-8.51,-6,-3.58,-12.11,-7.1,-18.07,-10.82,-4.81,-3,-9.67,-5.9,-14.52,-8.82,-5.95,-3.58,-11.92,-7.12,-17.88,-10.68l-11.71,-7c-4.52,-2.71,-9,-5.38,-13.53,-8.14,-2.2,-1.36,-2.46,-2.2,-1.35,-4.56,.92,-2,1.53,-4,2.32,-6,2.14,-5.38,2.28,-11,2.71,-16.67,.19,-2.6,-.56,-5.07,-1,-7.56a33.11,33.11,0,0,0,-3.87,-11.49c-.81,-1.32,-2,-2.24,-2.8,-3.56a20.56,20.56,0,0,0,-5.6,-5.82,28.14,28.14,0,0,0,-13.83,-5.52,31.47,31.47,0,0,0,-9.09,.09,41.42,41.42,0,0,0,-9.85,2.78c-2.23,1,-4.74,1.53,-6.21,3.78a1.62,1.62,0,0,1,-.81,.46c-2.34,.83,-3.32,3.42,-5.6,4.32,-.17,.06,-.28,.38,-.35,.6,-.42,1.3,-1.53,2,-2.45,2.89a20.14,20.14,0,0,0,-1.66,1.67,66.89,66.89,0,0,0,-5.14,7.17c-2.92,4.38,-6.06,8.61,-8.94,13,-4.11,6.27,-8,12.69,-11.8,19.13s-7.63,13.1,-11.09,19.85c-2.37,4.62,-4.71,9.27,-6.95,13.95,-1.83,3.81,-3.6,7.66,-5.23,11.56,-2.85,6.85,-5.7,13.7,-8.28,20.65,-2.42,6.5,-4.6,13.09,-6.78,19.68,-2,6.13,-3.65,12.38,-5.38,18.6s-3.26,12.48,-4.54,18.8c-1.34,6.62,-2.52,13.27,-3.75,19.92,-.88,4.77,-1.21,9.61,-2,14.41,-.64,4,-.55,8.1,-1.11,12.12A165.87,165.87,0,0,0,3.39,397c-.07,11,-.46,22,.34,33.07,.24,3.24,.45,6.51,.67,9.77,.13,2,.21,4,.48,5.95,.7,5,1.55,10.05,2.22,15.09,1,7.66,2.72,15.17,4.21,22.73,.89,4.46,2.33,8.77,3.39,13.17s2.35,8.67,3.51,13a128.93,128.93,0,0,0,5.48,15.29,15,15,0,0,0,1.74,3.89,8.42,8.42,0,0,1,1.41,3.51,10.16,10.16,0,0,0,.41,1.6c1.2,2.85,3,5.42,3.62,8.52a1.05,1.05,0,0,0,.41,.57,5.81,5.81,0,0,1,1.82,2.76c1.14,2.52,1.83,5.27,3.87,7.33,.3,.3,.33,.88,.48,1.33,.82,2.59,1.75,5.1,3.73,7.1a8.15,8.15,0,0,1,1.53,2.68,16,16,0,0,0,2.29,4,27.22,27.22,0,0,1,4.39,7.8A6.86,6.86,0,0,0,51,579c1.61,1.26,2.08,3.15,3.17,4.68,.55,.78,1.07,1.58,1.6,2.37,1,1.51,2.84,2.37,3.52,4.14a10,10,0,0,0,1.3,1.93c1.54,2.36,3.64,4.31,5,6.85a6.86,6.86,0,0,0,2.66,3,3.56,3.56,0,0,1,1.23,1.11,35.32,35.32,0,0,0,5.33,6.24,3,3,0,0,1,1,1.34,4.48,4.48,0,0,0,1.74,2.23,135.82,135.82,0,0,1,13.2,13.19c1.93,2.2,4.74,3.47,6.47,5.91,2.38,.78,3.16,3.61,5.57,4.35,1.08,2.31,4.11,2.39,5.27,4.6,3.42,1.91,6.09,4.86,9.45,6.79a41.09,41.09,0,0,0,5,3c2,.83,4.28,1.13,6.11,2.59,4.4,3.48,9.42,6,14.24,8.81,3.52,2,7.24,3.7,10.82,5.61,5,2.67,10.25,4.84,15.44,7.11,4.08,1.79,8.37,3.1,12.55,4.65,5.31,2,10.75,3.49,16.17,5.1,4.12,1.24,8.32,2.18,12.52,3.11,4.43,1,8.89,1.82,13.37,2.56,2.83,.47,5.72,.62,8.52,1.13a101.35,101.35,0,0,0,14.47,1.6c6.86,.25,13.73,.48,20.6,.58,4.38,.06,8.75,-.65,13.15,-.46a71.53,71.53,0,0,0,12.67,-.57c1.9,-.26,3.85,-.09,5.7,-.58a54.14,54.14,0,0,1,8.27,-1.16c4.85,-.49,9.64,-1.3,14.39,-2.26q11.7,-2.39,23.27,-5.38c2.49,-.65,4.81,-1.79,7.3,-2.31a104.17,104.17,0,0,0,14.79,-4.69c4.4,-1.63,8.83,-3.21,13.21,-4.92,6.77,-2.65,13.37,-5.68,19.95,-8.74,7.09,-3.3,14.06,-6.86,20.85,-10.77,7.95,-4.57,15.9,-9.15,23.5,-14.3,4.29,-2.92,8.74,-5.62,12.88,-8.72,5.61,-4.2,11.23,-8.4,16.66,-12.84C480,611,486,606,491.69,600.65c3.19,-3,6.77,-5.6,9.92,-8.65,3.91,-3.78,7.71,-7.67,11.55,-11.52A6.81,6.81,0,0,0,514.4,579a16.6,16.6,0,0,1,3.35,-4.32,131.87,131.87,0,0,0,9.39,-10.54c5.07,-6,10.11,-12.11,14.88,-18.4,5.44,-7.18,10.57,-14.58,15.66,-22A393.1,393.1,0,0,0,578,490c4.37,-8,8.45,-16.11,12,-24.47a46.61,46.61,0,0,0,2.37,-6,58.39,58.39,0,0,0,1.89,-10.32C594.39,448.56,594.47,448,595.2,447.93Z" transform="translate(0 0.11)" fill="#fff" /><path d="M595.2,447.93c-.73.09-.81.63-.86,1.22a58.39,58.39,0,0,1-1.89,10.32,46.61,46.61,0,0,1-2.37,6c-3.59,8.36-7.67,16.5-12,24.47a393.1,393.1,0,0,1-20.36,33.82c-5.09,7.42-10.22,14.82-15.66,22-4.77,6.29-9.81,12.36-14.88,18.4a131.87,131.87,0,0,1-9.39,10.54A16.6,16.6,0,0,0,514.4,579a6.81,6.81,0,0,1-1.24,1.45c-3.84,3.85-7.64,7.74-11.55,11.52-3.15,3-6.73,5.62-9.92,8.65C486,606,480,611,473.92,615.93c-5.43,4.44-11.05,8.64-16.66,12.84-4.14,3.1-8.59,5.8-12.88,8.72-7.6,5.15-15.55,9.73-23.5,14.3-6.79,3.91-13.76,7.47-20.85,10.77-6.58,3.06-13.18,6.09-19.95,8.74-4.38,1.71-8.81,3.29-13.21,4.92a104.17,104.17,0,0,1-14.79,4.69c-2.49.52-4.81,1.66-7.3,2.31q-11.55,3-23.27,5.38c-4.75,1-9.54,1.77-14.39,2.26a54.14,54.14,0,0,0-8.27,1.16c-1.85.49-3.8.32-5.7.58a71.53,71.53,0,0,1-12.67.57c-4.4-.19-8.77.52-13.15.46-6.87-.1-13.74-.33-20.6-.58a101.35,101.35,0,0,1-14.47-1.6c-2.8-.51-5.69-.66-8.52-1.13-4.48-.74-8.94-1.57-13.37-2.56-4.2-.93-8.4-1.87-12.52-3.11-5.42-1.61-10.86-3.13-16.17-5.1-4.18-1.55-8.47-2.86-12.55-4.65-5.19-2.27-10.42-4.44-15.44-7.11-3.58-1.91-7.3-3.57-10.82-5.61-4.82-2.82-9.84-5.33-14.24-8.81-1.83-1.46-4.07-1.76-6.11-2.59a41.09,41.09,0,0,1-5-3c-3.36-1.93-6-4.88-9.45-6.79-1.16-2.21-4.19-2.29-5.27-4.6-2.41-.74-3.19-3.57-5.57-4.35-1.73-2.44-4.54-3.71-6.47-5.91a135.82,135.82,0,0,0-13.2-13.19,4.48,4.48,0,0,1-1.74-2.23,3,3,0,0,0-1-1.34,35.32,35.32,0,0,1-5.33-6.24A3.56,3.56,0,0,0,68.24,602a6.86,6.86,0,0,1-2.66-3c-1.32-2.54-3.42-4.49-5-6.85a10,10,0,0,1-1.3-1.93c-.68-1.77-2.48-2.63-3.52-4.14-.53-.79-1-1.59-1.6-2.37-1.09-1.53-1.56-3.42-3.17-4.68a6.86,6.86,0,0,1-1.64-2.86,27.22,27.22,0,0,0-4.39-7.8,16,16,0,0,1-2.29-4,8.15,8.15,0,0,0-1.53-2.68c-2-2-2.91-4.51-3.73-7.1-.15-.45-.18-1-.48-1.33-2-2.06-2.73-4.81-3.87-7.33a5.81,5.81,0,0,0-1.82-2.76,1.05,1.05,0,0,1-.41-.57c-.59-3.1-2.42-5.67-3.62-8.52a10.16,10.16,0,0,1-.41-1.6,8.42,8.42,0,0,0-1.41-3.51,15,15,0,0,1-1.74-3.89,128.93,128.93,0,0,1-5.48-15.29c-1.16-4.34-2.45-8.64-3.51-13s-2.5-8.71-3.39-13.17C9.82,476,8.1,468.51,7.1,460.85c-.67-5-1.52-10.06-2.22-15.09-.27-2-.35-4-.48-5.95-.22-3.26-.43-6.53-.67-9.77C2.93,419,3.32,408,3.39,397a165.87,165.87,0,0,1,1.3-21.92c.56-4,.47-8.13,1.11-12.12.77-4.8,1.1-9.64,2-14.41,1.23-6.65,2.41-13.3,3.75-19.92,1.28-6.32,2.81-12.59,4.54-18.8s3.36-12.47,5.38-18.6c2.18-6.59,4.36-13.18,6.78-19.68,2.58-6.95,5.43-13.8,8.28-20.65,1.63-3.9,3.4-7.75,5.23-11.56,2.24-4.68,4.58-9.33,6.95-13.95,3.46-6.75,7.21-13.33,11.09-19.85s7.69-12.86,11.8-19.13c2.88-4.4,6-8.63,8.94-13a66.89,66.89,0,0,1,5.14-7.17,20.14,20.14,0,0,1,1.66-1.67c.92-.86,2-1.59,2.45-2.89.07-.22.18-.54.35-.6,2.28-.9,3.26-3.49,5.6-4.32a1.62,1.62,0,0,0,.81-.46c1.47-2.25,4-2.79,6.21-3.78a41.42,41.42,0,0,1,9.85-2.78,31.47,31.47,0,0,1,9.09-.09,28.14,28.14,0,0,1,13.83,5.52,20.56,20.56,0,0,1,5.6,5.82c.76,1.32,2,2.24,2.8,3.56A33.11,33.11,0,0,1,147.78,176c.47,2.49,1.22,5,1,7.56-.43,5.63-.57,11.29-2.71,16.67-.79,2-1.4,4.05-2.32,6-1.11,2.36-.85,3.2,1.35,4.56,4.48,2.76,9,5.43,13.53,8.14l11.71,7c6,3.56,11.93,7.1,17.88,10.68,4.85,2.92,9.71,5.82,14.52,8.82,6,3.72,12,7.24,18.07,10.82,4.73,2.81,9.42,5.69,14.15,8.51,5.14,3.07,10.31,6.08,15.45,9.15s9.95,6,14.94,9.06c2.18,1.31,4.42,2.56,6.61,3.86q6,3.56,11.9,7.14c6.22,3.74,12.4,7.55,18.74,11.09,3.69,2.06,7.27,4.31,10.91,6.46,5.08,3,10.22,5.91,15.24,9,3.85,2.4,7.9,4.48,11.49,7.32,3.26,2.58,7.06,4.35,10.61,6.48,3.89,2.34,7.8,4.66,11.74,6.91,6.51,3.72,12.87,7.68,19.42,11.34,6,3.35,11.92,6.79,17.78,10.38,4.89,3,10,5.72,14.93,8.6,3.8,2.2,7.55,4.48,11.34,6.7,6.4,3.74,12.84,7.45,19.24,11.2,5.58,3.27,11.11,6.62,16.7,9.86,6.21,3.61,12.47,7.14,18.69,10.72q8.1,4.65,16.16,9.36c6.28,3.65,12.54,7.33,18.81,11,2.69,1.57,5.38,3.13,8.06,4.71,2,1.21,3.2,1.09,4.46-.88a46,46,0,0,1,9.84-10.43,38.61,38.61,0,0,1,14-7.63c1.84-.52,3.6-1.23,5.48-1.66a27.46,27.46,0,0,1,10.91-.25,30.15,30.15,0,0,1,12.18,4.68c7.76,5.32,12,12.79,13.29,22a27.21,27.21,0,0,1,.49,4,.89.89,0,0,0,.82,1ZM267.28,691.57h0c6.32,0,12.64.06,19,0a69,69,0,0,0,8.12-.59c3.47-.47,6.86-1.32,10.41-1.41a33.71,33.71,0,0,0,8.49-1.34,7.75,7.75,0,0,1,1.88-.38c5.54-.23,10.82-1.91,16.19-3.05,4.19-.89,8.41-1.82,12.53-3.06,6.11-1.82,12.26-3.52,18.3-5.58s12-4.28,18-6.6c6.84-2.67,13.5-5.77,20.13-8.94,5.4-2.59,10.82-5.13,16.1-8,9-4.86,17.8-10,26.3-15.72,8.16-5.44,16.21-11,24-17.07,7-5.44,13.81-11.08,20.52-16.85,5.52-4.74,10.54-10,15.87-15,4.62-4.3,8.78-9.06,13.07-13.69s8.4-9.42,12.49-14.22c4.78-5.63,9.2-11.59,13.79-17.39,1.48-1.87,2.36-4.18,4.09-5.86a21.07,21.07,0,0,0,3.41-4.76,37.58,37.58,0,0,1,2.86-4.22c1.15-1.49,2.23-3,3.34-4.56,3.41-4.73,6.42-9.72,9.38-14.72,3.82-6.46,7.93-12.77,11.09-19.6,1-2.05,2.63-3.74,3.06-6.06a1.37,1.37,0,0,1,.44-.83c2.12-1.39,1.76-4.18,3.36-5.85-.2-1.46,1.36-2.12,1.56-3.32a19.86,19.86,0,0,1,1.38-3.54c.9-2.52,2.55-4.63,3.44-7.22,1.27-3.67,1.67-7.45,2.65-11.13a16.82,16.82,0,0,0,.32-6.43,83.65,83.65,0,0,0-1.6-8.44,20.43,20.43,0,0,0-2.74-6.57c-4.06-6.24-9.42-10.85-16.87-12.86a31,31,0,0,0-14.67-.34c-1.55.31-3,1-4.56,1.34a30.55,30.55,0,0,0-8.55,3.9c-2,1.19-4.26,2.19-5.61,4.29-3.35,1.66-4.83,5.23-7.64,7.44a1.8,1.8,0,0,0-.53,1.05c-.45,1.69-2,2.51-3.21,3.31s-2.44-.24-3.59-.8l-1.27-.67c-6.63-3.57-12.74-8-19.44-11.44-4.87-2.51-9.44-5.59-14.19-8.33-3.75-2.18-7.33-4.64-11.09-6.79-4-2.28-7.87-4.71-12-6.77a96.7,96.7,0,0,1-9.55-5.75c-2.36-1.54-5.11-2.51-7.42-4.12-2.76-1.91-5.67-3.52-8.56-5.2-2.44-1.41-5-2.66-7.41-4.1-2-1.2-4-2.54-6-3.77-4.31-2.63-8.7-5.15-13.17-7.51-4.09-2.16-8-4.67-12-7q-9.3-5.44-18.62-10.86c-3.79-2.21-7.62-4.36-11.39-6.61-5.68-3.4-11.23-7-17-10.25-7.26-4-14.32-8.38-21.4-12.7s-14-8.38-21-12.48q-15.4-9-30.75-18.11c-5.34-3.17-10.42-6.85-16.32-9a4.17,4.17,0,0,1-1-.65,20,20,0,0,0-6.06-3.59,2,2,0,0,1-1.18-.77,2.25,2.25,0,0,0-1.79-1,2.53,2.53,0,0,1-1.46-.76,13.41,13.41,0,0,0-4.35-2.76c-1.82-.73-3.32-2-5.07-2.95-2.27-1.18-4.27-2.88-6.5-4.21-2.52-1.51-5.13-2.87-7.57-4.52s-4.66-3.31-7.27-4.11c-2.92-.89-4.63-3.68-7.64-4.16a.66.66,0,0,1-.4-.25c-1.11-1.45-2.76-2.16-4.29-3a95.15,95.15,0,0,1-8.61-5.21c-1.55-1.08-3.32-1.84-4.93-2.85q-12.27-7.68-24.83-14.9a38,38,0,0,1-4-2.07c-3.8-2.94-8.09-5.09-12.14-7.61q-6.48-4-13.07-7.89a3.74,3.74,0,0,1-1.92-4,7.41,7.41,0,0,1,.76-2.5,61.21,61.21,0,0,0,4.22-12.94c.64-3.09.31-6.21.42-9.31a34.33,34.33,0,0,0-4.77-18.19,24,24,0,0,0-6.89-7.58,27.35,27.35,0,0,0-19.1-5.39,37.26,37.26,0,0,0-11.3,2.9,38.82,38.82,0,0,0-14.75,11.56c-4.36,5.3-8.29,10.92-12.11,16.63-3,4.51-6,9.07-8.85,13.66a353.08,353.08,0,0,0-17.58,30.76c-3.46,6.92-6.87,13.87-10,21-4.68,10.6-8.88,21.37-12.78,32.27-3.1,8.63-5.52,17.49-8.08,26.3-2.76,9.51-4.85,19.16-6.83,28.84-1.36,6.62-2.29,13.34-3.37,20-.39,2.44-.73,4.89-1,7.34-.4,3.88-.56,7.8-1.09,11.66a167.12,167.12,0,0,0-1.24,19.08c-.33,13.65-.43,27.31.77,40.94.38,4.37.66,8.75,1.17,13.09.65,5.54,1.38,11.07,2.37,16.55,1.34,7.36,2.87,14.69,4.5,22,1,4.35,2.35,8.61,3.46,12.93a112.22,112.22,0,0,0,3.35,11c1.9,5.16,3.23,10.55,5.79,15.46a19.26,19.26,0,0,1,1.41,3.31,75.19,75.19,0,0,0,5.4,13c5,9.56,10,19.1,15.44,28.41,2.57,4.41,4.93,9,8.19,12.93,4,4.86,7.24,10.29,11.36,15.08,3.91,4.53,7.67,9.19,11.8,13.52a257.55,257.55,0,0,0,29.27,26.86c3.29,2.53,6.58,5.07,10,7.32,3.74,2.43,7.66,4.57,11.39,7a221.69,221.69,0,0,0,22.27,12.62c4.64,2.34,9.42,4.35,14.17,6.45,6.07,2.69,12.33,4.81,18.6,6.93,5.36,1.82,10.85,3.22,16.32,4.69,4.85,1.31,9.76,2.37,14.69,3.26,2.36.42,4.71.82,7,1.35.7.16,1.42.18,2.13.31,3.15.56,6.39.24,9.51,1a49.06,49.06,0,0,0,10.92,1.21C254.16,691.71,260.72,691.57,267.28,691.57Z" transform="translate(0 0.11)" fill="#b0afb0" /><path d="M267.28,691.57c-6.56,0-13.12.14-19.67-.05a49.06,49.06,0,0,1-10.92-1.21c-3.12-.8-6.36-.48-9.51-1-.71-.13-1.43-.15-2.13-.31-2.33-.53-4.68-.93-7-1.35-4.93-.89-9.84-2-14.69-3.26-5.47-1.47-11-2.87-16.32-4.69-6.27-2.12-12.53-4.24-18.6-6.93-4.75-2.1-9.53-4.11-14.17-6.45A221.69,221.69,0,0,1,132,653.66c-3.73-2.47-7.65-4.61-11.39-7-3.47-2.25-6.76-4.79-10-7.32a257.55,257.55,0,0,1-29.27-26.86c-4.13-4.33-7.89-9-11.8-13.52-4.12-4.79-7.36-10.22-11.36-15.08-3.26-4-5.62-8.52-8.19-12.93-5.44-9.31-10.46-18.85-15.44-28.41a75.19,75.19,0,0,1-5.4-13,19.26,19.26,0,0,0-1.41-3.31c-2.56-4.91-3.89-10.3-5.79-15.46a112.22,112.22,0,0,1-3.35-11c-1.11-4.32-2.49-8.58-3.46-12.93-1.63-7.3-3.16-14.63-4.5-22-1-5.48-1.72-11-2.37-16.55-.51-4.34-.79-8.72-1.17-13.09-1.2-13.63-1.1-27.29-.77-40.94a167.12,167.12,0,0,1,1.24-19.08c.53-3.86.69-7.78,1.09-11.66.26-2.45.6-4.9,1-7.34,1.08-6.67,2-13.39,3.37-20,2-9.68,4.07-19.33,6.83-28.84,2.56-8.81,5-17.67,8.08-26.3,3.9-10.9,8.1-21.67,12.78-32.27,3.14-7.1,6.55-14,10-21A353.08,353.08,0,0,1,68.21,197c2.9-4.59,5.83-9.15,8.85-13.66,3.82-5.71,7.75-11.33,12.11-16.63a38.82,38.82,0,0,1,14.75-11.56,37.26,37.26,0,0,1,11.3-2.9,27.35,27.35,0,0,1,19.1,5.39,24,24,0,0,1,6.89,7.58A34.33,34.33,0,0,1,146,183.41c-.11,3.1.22,6.22-.42,9.31a61.21,61.21,0,0,1-4.22,12.94,7.41,7.41,0,0,0-.76,2.5,3.74,3.74,0,0,0,1.92,4q6.6,3.84,13.07,7.89c4.05,2.52,8.34,4.67,12.14,7.61a38,38,0,0,0,4,2.07q12.56,7.22,24.83,14.9c1.61,1,3.38,1.77,4.93,2.85a95.15,95.15,0,0,0,8.61,5.21c1.53.83,3.18,1.54,4.29,3a.66.66,0,0,0,.4.25c3,.48,4.72,3.27,7.64,4.16,2.61.8,5,2.55,7.27,4.11s5,3,7.57,4.52c2.23,1.33,4.23,3,6.5,4.21,1.75.91,3.25,2.22,5.07,2.95a13.41,13.41,0,0,1,4.35,2.76,2.53,2.53,0,0,0,1.46.76,2.25,2.25,0,0,1,1.79,1,2,2,0,0,0,1.18.77,20,20,0,0,1,6.06,3.59,4.17,4.17,0,0,0,1,.65c5.9,2.17,11,5.85,16.32,9q15.33,9.13,30.75,18.11,10.54,6.15,21,12.48c7.08,4.32,14.14,8.67,21.4,12.7,5.78,3.21,11.33,6.85,17,10.25,3.77,2.25,7.6,4.4,11.39,6.61q9.31,5.42,18.62,10.86c4,2.34,7.9,4.85,12,7,4.47,2.36,8.86,4.88,13.17,7.51,2,1.23,4,2.57,6,3.77,2.41,1.44,5,2.69,7.41,4.1,2.89,1.68,5.8,3.29,8.56,5.2,2.31,1.61,5.06,2.58,7.42,4.12a96.7,96.7,0,0,0,9.55,5.75c4.11,2.06,8,4.49,12,6.77,3.76,2.15,7.34,4.61,11.09,6.79,4.75,2.74,9.32,5.82,14.19,8.33,6.7,3.45,12.81,7.87,19.44,11.44l1.27.67c1.15.56,2.47,1.52,3.59.8s2.76-1.62,3.21-3.31a1.8,1.8,0,0,1,.53-1.05c2.81-2.21,4.29-5.78,7.64-7.44,1.35-2.1,3.63-3.1,5.61-4.29a30.55,30.55,0,0,1,8.55-3.9c1.54-.37,3-1,4.56-1.34a31,31,0,0,1,14.67.34c7.45,2,12.81,6.62,16.87,12.86a20.43,20.43,0,0,1,2.74,6.57,83.65,83.65,0,0,1,1.6,8.44,16.82,16.82,0,0,1-.32,6.43c-1,3.68-1.38,7.46-2.65,11.13-.89,2.59-2.54,4.7-3.44,7.22a19.86,19.86,0,0,0-1.38,3.54c-.2,1.2-1.76,1.86-1.56,3.32-1.6,1.67-1.24,4.46-3.36,5.85a1.37,1.37,0,0,0-.44.83c-.43,2.32-2.11,4-3.06,6.06-3.16,6.83-7.27,13.14-11.09,19.6-3,5-6,10-9.38,14.72-1.11,1.53-2.19,3.07-3.34,4.56a37.58,37.58,0,0,0-2.86,4.22,21.07,21.07,0,0,1-3.41,4.76c-1.73,1.68-2.61,4-4.09,5.86-4.59,5.8-9,11.76-13.79,17.39-4.09,4.8-8.2,9.59-12.49,14.22S507.61,583.73,503,588c-5.33,5-10.35,10.22-15.87,15-6.71,5.77-13.53,11.41-20.52,16.85-7.74,6-15.79,11.63-24,17.07-8.5,5.68-17.3,10.86-26.3,15.72-5.28,2.85-10.7,5.39-16.1,8-6.63,3.17-13.29,6.27-20.13,8.94-5.94,2.32-11.92,4.55-18,6.6s-12.19,3.76-18.3,5.58c-4.12,1.24-8.34,2.17-12.53,3.06-5.37,1.14-10.65,2.82-16.19,3.05a7.75,7.75,0,0,0-1.88.38,33.71,33.71,0,0,1-8.49,1.34c-3.55.09-6.94.94-10.41,1.41a69,69,0,0,1-8.12.59c-6.32.08-12.64,0-19,0Zm-1-40.36h16.32c1.11,0,2.22-.18,3.33-.27,2.79-.21,5.5-.91,8.26-1.27,2.3-.31,4.63-.11,6.9-.63,5.82-1.34,11.76-2,17.59-3.36,5.11-1.21,10.22-2.44,15.31-3.74,2.79-.71,5.49-1.65,8.24-2.47s5.8-1.73,8.66-2.73c4-1.38,7.88-3.06,11.84-4.51,6.84-2.5,13.4-5.63,20-8.71,7.06-3.31,14-6.9,20.72-10.88s13.63-7.95,20.17-12.37c4.76-3.22,9.6-6.33,14.13-9.85,6.85-5.33,13.76-10.6,20.39-16.23C464.24,569,470,563.36,476,558c6.53-5.89,12.17-12.67,18.44-18.84a6,6,0,0,0,.49-.52c3.79-4.41,7.61-8.79,11.35-13.25,1.78-2.14,3.72-4.15,5.32-6.44a32.33,32.33,0,0,1,2.81-3.56c3.2-3.43,5.78-7.35,8.56-11.09,3-4.05,5.83-8.27,8.66-12.47,2.36-3.5,4.78-7,6.9-10.6,2.44-4.19,5.08-8.27,7.43-12.53,1.3-2.33.88-3.1-1.21-4.59-2.33-1.65-4.87-3-7.35-4.45-4.76-2.76-9.59-5.39-14.27-8.28-4.07-2.52-8.27-4.8-12.39-7.22-5.16-3-10.37-6-15.49-9.07-4.78-2.89-9.69-5.53-14.43-8.48S470.94,421,466.14,418s-9.52-5.5-14.18-8.45c-5.84-3.7-11.94-7-17.93-10.49l-12.64-7.3c-3.87-2.23-7.72-4.49-11.58-6.73-3.37-2-6.78-3.85-10.14-5.83-2.74-1.62-5.41-3.36-8.15-5-5.35-3.16-10.72-6.28-16.09-9.43-3.85-2.25-7.68-4.52-11.54-6.76-2.48-1.44-5.07-2.72-7.46-4.31-4.19-2.79-8.65-5.11-13-7.59-4.85-2.77-9.65-5.63-14.53-8.34-5.44-3-10.69-6.38-16-9.59q-11.47-6.91-23-13.82Q281,309,272,303.72c-4.94-2.92-10-5.71-14.84-8.76-5.75-3.6-11.57-7.07-17.38-10.56-10-6-19.85-12.2-29.94-18-8.49-4.9-16.76-10.2-25.25-15.1-5.81-3.35-11.56-6.79-17.28-10.26-8.59-5.21-17.26-10.29-25.81-15.56C131,219,120.25,212.8,109.6,206.51c-2.33-1.38-3.87-1-5.5,1.22a69.45,69.45,0,0,0-3.78,6.38c-2.25,3.85-4.63,7.64-6.64,11.61-4,7.9-7.87,15.88-11.66,23.88-2,4.33-3.89,8.75-5.71,13.18-2,4.79-3.72,9.68-5.62,14.5-2.88,7.37-5.3,14.89-7.61,22.43-2.73,8.91-5.22,17.9-7.21,27-1.09,5-2.23,9.95-3.1,15-.73,4.23-1.54,8.45-2.22,12.69q-.87,5.53-1.52,11.11c-.42,3.55-.54,7.15-1.09,10.68a140.91,140.91,0,0,0-1.23,18.11c-.3,11-.41,22,.34,33.05.2,2.86.28,5.76.64,8.58.61,4.81,1.08,9.64,1.68,14.45a233.18,233.18,0,0,0,4.2,23.24c3,12.89,6.33,25.7,11.37,38,1.79,4.35,3.14,8.88,5.22,13.12,4.5,9.17,9.79,17.92,14.53,27A30,30,0,0,0,87.94,557c4.56,5.54,8.34,11.64,13,17.13,4.34,5.12,8.82,10.08,13.37,15,2.54,2.75,5.35,5.24,8.12,7.79,4.23,3.89,8.78,7.38,13.22,11,6.75,5.53,14.56,9.46,21.92,14.06a150.49,150.49,0,0,0,17.1,9.11c3.69,1.68,7.36,3.41,11.12,4.94,3.93,1.59,7.94,2.91,11.89,4.44a136.39,136.39,0,0,0,15.61,4.5c5.31,1.36,10.73,2.32,16.1,3.48a36.26,36.26,0,0,0,6.38.87,40.84,40.84,0,0,1,6.62.89,43.64,43.64,0,0,0,9.25,1C256.51,651.17,261.39,651.21,266.27,651.21Z" transform="translate(0 0.11)" fill="#353223" /><path d="M266.27,651.21c-4.88,0-9.76,0-14.64,0a43.64,43.64,0,0,1-9.25-1,40.84,40.84,0,0,0-6.62-.89,36.26,36.26,0,0,1-6.38-.87c-5.37-1.16-10.79-2.12-16.1-3.48a136.39,136.39,0,0,1-15.61-4.5c-3.95-1.53-8-2.85-11.89-4.44-3.76-1.53-7.43-3.26-11.12-4.94a150.49,150.49,0,0,1-17.1-9.11c-7.36-4.6-15.17-8.53-21.92-14.06-4.44-3.64-9-7.13-13.22-11-2.77-2.55-5.58-5-8.12-7.79-4.55-4.92-9-9.88-13.37-15-4.65-5.49-8.43-11.59-13-17.13a30,30,0,0,1-3.25-5.29c-4.74-9-10-17.8-14.53-27-2.08-4.24-3.43-8.77-5.22-13.12-5-12.28-8.39-25.09-11.37-38a233.18,233.18,0,0,1-4.2-23.24c-.6-4.81-1.07-9.64-1.68-14.45-.36-2.82-.44-5.72-.64-8.58-.75-11-.64-22-.34-33.05a140.91,140.91,0,0,1,1.23-18.11c.55-3.53.67-7.13,1.09-10.68q.64-5.58,1.52-11.11c.68-4.24,1.49-8.46,2.22-12.69.87-5,2-10,3.1-15,2-9.11,4.48-18.1,7.21-27,2.31-7.54,4.73-15.06,7.61-22.43,1.9-4.82,3.65-9.71,5.62-14.5,1.82-4.43,3.66-8.85,5.71-13.18,3.79-8,7.65-16,11.66-23.88,2-4,4.39-7.76,6.64-11.61a69.45,69.45,0,0,1,3.78-6.38c1.63-2.2,3.17-2.6,5.5-1.22C120.25,212.8,131,219,141.51,225.45c8.55,5.27,17.22,10.35,25.81,15.56,5.72,3.47,11.47,6.91,17.28,10.26,8.49,4.9,16.76,10.2,25.25,15.1,10.09,5.83,20,12,29.94,18,5.81,3.49,11.63,7,17.38,10.56,4.87,3.05,9.9,5.84,14.84,8.76q9,5.31,17.89,10.67,11.5,6.89,23,13.82c5.33,3.21,10.58,6.58,16,9.59,4.88,2.71,9.68,5.57,14.53,8.34,4.36,2.48,8.82,4.8,13,7.59,2.39,1.59,5,2.87,7.46,4.31,3.86,2.24,7.69,4.51,11.54,6.76,5.37,3.15,10.74,6.27,16.09,9.43,2.74,1.62,5.41,3.36,8.15,5,3.36,2,6.77,3.88,10.14,5.83,3.86,2.24,7.71,4.5,11.58,6.73l12.64,7.3c6,3.47,12.09,6.79,17.93,10.49,4.66,2.95,9.5,5.55,14.18,8.45s9.86,5.57,14.66,8.56,9.65,5.59,14.43,8.48c5.12,3.1,10.33,6,15.49,9.07,4.12,2.42,8.32,4.7,12.39,7.22,4.68,2.89,9.51,5.52,14.27,8.28,2.48,1.44,5,2.8,7.35,4.45,2.09,1.49,2.51,2.26,1.21,4.59-2.35,4.26-5,8.34-7.43,12.53-2.12,3.65-4.54,7.1-6.9,10.6-2.83,4.2-5.65,8.42-8.66,12.47-2.78,3.74-5.36,7.66-8.56,11.09a32.33,32.33,0,0,0-2.81,3.56c-1.6,2.29-3.54,4.3-5.32,6.44-3.74,4.46-7.56,8.84-11.35,13.25a6,6,0,0,1-.49.52c-6.27,6.17-11.91,13-18.44,18.84-6,5.4-11.74,11-17.89,16.23-6.63,5.63-13.54,10.9-20.39,16.23-4.53,3.52-9.37,6.63-14.13,9.85-6.54,4.42-13.37,8.36-20.17,12.37s-13.66,7.57-20.72,10.88c-6.56,3.08-13.12,6.21-20,8.71-4,1.45-7.85,3.13-11.84,4.51-2.86,1-5.76,1.86-8.66,2.73s-5.45,1.76-8.24,2.47c-5.09,1.3-10.2,2.53-15.31,3.74-5.83,1.38-11.77,2-17.59,3.36-2.27.52-4.6.32-6.9.63-2.76.36-5.47,1.06-8.26,1.27-1.11.09-2.22.27-3.33.27Z" transform="translate(0 0.11)" fill="#b0afb0" /></g></svg>