<?xml version="1.0" encoding="iso-8859-1"?>
<!-- Uploaded to: SVG Repo, www.svgrepo.com, Generator: SVG Repo Mixer Tools -->
<svg fill="#000000" height="800px" width="800px" version="1.1" id="Layer_1" xmlns="http://www.w3.org/2000/svg" xmlns:xlink="http://www.w3.org/1999/xlink" 
	 viewBox="0 0 506.625 506.625" xml:space="preserve">
<g transform="translate(-1)">
	<g>
		<path d="M500.551,139.159l-1.572-0.826c-25.061-13.411-47.544-16.923-66.838-10.411c-16.967,5.727-30.632,18.906-40.661,39.177
			c-7.841,2.391-15.015,4.658-21.632,7.451c2.525-8.136,4.78-16.939,6.534-26.28c0.219-0.461,0.393-0.933,0.528-1.412
			c0.008-0.028,0.019-0.056,0.027-0.084c0.056-0.207,0.098-0.417,0.138-0.626c0.015-0.078,0.035-0.153,0.048-0.231
			c0.03-0.177,0.046-0.355,0.065-0.533c0.012-0.115,0.03-0.229,0.037-0.344c0.01-0.148,0.008-0.296,0.011-0.444
			c0.003-0.147,0.01-0.293,0.005-0.44c-0.004-0.119-0.018-0.237-0.026-0.356c-0.004-0.056-0.007-0.112-0.012-0.169
			c2.546-15.337,3.654-32.032,2.297-49.591c10.786,2.029,20.997,3.055,30.595,3.055c20.489,0,38.22-4.626,52.979-13.86
			c21.405-13.411,35.597-35.894,42.164-66.829l0.386-1.752c1.132-4.833-1.859-9.665-6.683-10.806
			c-7.536-1.779-34.331-7.096-62.644-0.997c-21.796,4.69-48.552,17.148-65.017,48.641c-4.511-14.317-10.952-28.913-19.83-43.563
			c-2.578-4.249-8.102-5.569-12.342-3.018c-4.24,2.569-5.596,8.093-3.027,12.342c13.599,22.437,21.048,44.616,24.357,65.64
			c0.002,0.081,0.002,0.161,0.006,0.242c0.01,0.19,0.031,0.377,0.053,0.565c0.012,0.102,0.02,0.203,0.036,0.305
			c0.029,0.188,0.068,0.373,0.109,0.559c0.022,0.1,0.04,0.2,0.065,0.3c0.017,0.065,0.032,0.13,0.05,0.195
			c1.181,8.172,1.745,16.164,1.802,23.921c-5.245-7.204-11.604-13.106-19.063-17.655c-18.764-11.453-44.553-13.779-72.614-6.53
			l-0.755,0.189c-4.779,1.159-7.725,5.937-6.647,10.725l0.278,1.276c1.788,8.686,7.222,35.121,31.681,50.41
			c11.246,7.024,24.792,10.536,40.475,10.536c6.625,0,13.64-0.627,21.022-1.884c-3.284,13.469-7.614,25.419-11.935,35.358
			c-0.731,1.017-1.224,2.149-1.478,3.324c-5.201,11.451-10.196,19.887-13.109,24.461H178.253
			c-5.423-8.699-18.506-31.822-26.105-63.062c7.214,1.206,14.077,1.815,20.564,1.815c15.683,0,29.229-3.521,40.475-10.545
			c24.459-15.279,29.894-41.715,31.69-50.401l0.269-1.284c1.078-4.788-2.641-9.755-7.402-10.905
			c-28.07-7.231-53.85-4.913-72.614,6.521c-7.286,4.444-13.522,10.181-18.696,17.16c0.177-28.321,6.964-59.638,26.112-91.225
			c2.569-4.249,1.213-9.773-3.027-12.342c-4.231-2.569-9.764-1.204-12.342,3.018c-8.877,14.649-15.318,29.242-19.829,43.557
			C120.886,20.004,94.126,7.553,72.33,2.863C43.999-3.236,17.214,2.081,9.686,3.851C4.863,4.991,1.872,9.824,3.003,14.657
			l0.386,1.761c6.566,30.936,20.758,53.419,42.173,66.82c14.749,9.234,32.472,13.86,52.97,13.86c9.595,0,19.809-1.025,30.596-3.053
			c-1.357,17.559-0.25,34.253,2.295,49.59c-0.008,0.094-0.015,0.188-0.021,0.282c-0.005,0.078-0.015,0.155-0.017,0.234
			c-0.006,0.174,0.001,0.346,0.006,0.518c0.003,0.123,0.001,0.247,0.009,0.37c0.009,0.134,0.028,0.265,0.043,0.398
			c0.018,0.161,0.032,0.322,0.059,0.482c0.016,0.092,0.039,0.182,0.057,0.274c0.039,0.196,0.077,0.392,0.13,0.586
			c0.011,0.041,0.027,0.081,0.038,0.122c0.133,0.467,0.304,0.929,0.517,1.379c1.753,9.34,4.009,18.144,6.534,26.28
			c-6.616-2.792-13.789-5.059-21.629-7.45c-10.03-20.271-23.694-33.449-40.661-39.176c-19.276-6.53-41.786-2.991-66.838,10.411
			l-1.572,0.826c-2.156,0.988-3.845,2.794-4.671,5.03c-0.835,2.237-0.746,4.707,0.252,6.872c0.198,0.44,0.431,1.06,0.746,1.805
			c3.252,8.138,11.902,29.723,35.409,38.957c7.042,2.776,14.758,4.15,23.121,4.15c14.219,0,30.284-4,48.038-11.976
			c16.566,5.036,28.772,8.962,38.244,18.237c2.943,6.602,5.819,12.295,8.343,16.941H65.646c-4.967,0-8.982,4.015-8.982,8.982v44.912
			c0,4.967,4.015,8.982,8.982,8.982H93.97l5.988,35.93h73.477c4.958,0,8.982,4.015,8.982,8.982c0,4.967-4.024,8.982-8.982,8.982
			h-70.485l19.465,116.772h-20.836c-2.767,0-5.38,1.275-7.078,3.458c-1.707,2.174-2.308,5.012-1.635,7.698l8.982,35.93
			c0.997,3.997,4.59,6.809,8.713,6.809h287.439c4.123,0,7.707-2.812,8.704-6.809l8.982-35.93c0.683-2.686,0.072-5.524-1.626-7.698
			c-1.707-2.183-4.321-3.458-7.078-3.458h-20.841l7.49-44.912h-94.442c-4.958,0-8.982-4.015-8.982-8.982
			c0-4.967,4.024-8.982,8.982-8.982h97.433l17.962-107.789h28.325c4.967,0,8.982-4.015,8.982-8.982v-44.912
			c0-4.967-4.015-8.982-8.982-8.982h-91.848c2.525-4.648,5.403-10.343,8.348-16.95c9.47-9.273,21.673-13.199,38.234-18.234
			c17.763,7.97,33.83,11.971,48.051,11.971c8.354,0,16.079-1.383,23.121-4.15c23.507-9.234,32.157-30.819,35.409-38.957
			c0.305-0.745,0.548-1.365,0.746-1.805C507.018,146.587,504.997,141.261,500.551,139.159z M46.38,175.117
			c-12.854-5.057-19.501-15.944-23.058-23.624c10.357-5.075,29.418-12.611,47.427-6.548c6.016,2.035,11.528,5.51,16.511,10.383
			c-5.271-1.518-10.583-2.715-16.038-3.618c-4.877-0.898-9.512,2.506-10.321,7.402c-0.817,4.886,2.497,9.512,7.393,10.321
			c6.319,1.048,12.443,2.557,18.576,4.589C70.757,178.981,57.187,179.366,46.38,175.117z M174.482,106.668
			c12.971-7.914,30.918-10.033,51.11-6.189c-2.605,9.234-8.354,23.202-21.917,31.681c-10.09,6.295-23.123,8.783-38.881,7.471
			c4.322-2.655,8.486-5.073,12.749-7.218c4.428-2.237,6.207-7.635,3.979-12.072c-2.228-4.428-7.644-6.198-12.072-3.979
			c-3.613,1.822-7.144,3.812-10.669,5.909C163.003,115.695,168.242,110.471,174.482,106.668z M55.084,68.012
			C33.93,54.763,25.909,32.559,22.576,19.651c10.617-1.662,27.98-3.09,45.972,0.773c24.666,5.314,42.576,18.928,53.486,40.57
			c-17.288-11.369-33.851-21.936-54.417-27.045c-4.833-1.186-9.692,1.743-10.887,6.557c-1.186,4.815,1.743,9.692,6.557,10.887
			c18.432,4.563,33.514,14.507,51.002,26.004c0.323,0.213,0.654,0.43,0.979,0.644C90.808,81.079,70.627,77.735,55.084,68.012z
			 M390.975,488.66H117.576l-4.491-17.965h19.929H375.54h19.926L390.975,488.66z M272.242,398.835c0,4.967-4.024,8.982-8.982,8.982
			h-8.982c-4.958,0-8.982-4.015-8.982-8.982c0-4.967,4.024-8.982,8.982-8.982h8.982
			C268.218,389.853,272.242,393.868,272.242,398.835z M227.33,326.976c0,4.967-4.024,8.982-8.982,8.982h-8.982
			c-4.958,0-8.982-4.015-8.982-8.982c0-4.967,4.024-8.982,8.982-8.982h8.982C223.305,317.993,227.33,322.008,227.33,326.976z
			 M433.927,264.099h-26.948H101.575H74.629v-26.947h359.298V264.099z M440.076,20.411c18.001-3.854,35.355-2.434,45.972-0.773
			C482.716,32.555,474.695,54.76,453.541,68c-15.54,9.72-35.741,13.065-60.181,10.029c0.324-0.213,0.653-0.429,0.976-0.642
			c17.48-11.498,32.57-21.441,51.011-26.004c4.815-1.195,7.743-6.072,6.557-10.887c-1.204-4.824-6.099-7.725-10.887-6.557
			c-20.572,5.109-37.134,15.682-54.428,27.042C397.5,39.339,415.41,25.724,440.076,20.411z M304.95,132.148
			c-13.563-8.479-19.312-22.447-21.917-31.681c20.22-3.862,38.148-1.716,51.11,6.189c6.238,3.808,11.476,9.031,15.696,15.602
			c-3.523-2.096-7.052-4.084-10.664-5.906c-4.446-2.228-9.845-0.449-12.072,3.979c-2.228,4.437-0.449,9.836,3.979,12.072
			c4.263,2.144,8.426,4.562,12.748,7.217C328.086,140.932,315.044,138.448,304.95,132.148z M462.241,175.107
			c-10.802,4.256-24.379,3.878-40.493-1.092c6.135-2.033,12.262-3.543,18.584-4.591c4.895-0.808,8.21-5.434,7.393-10.321
			c-0.808-4.895-5.443-8.273-10.321-7.402c-5.458,0.904-10.772,2.101-16.045,3.62c4.983-4.874,10.495-8.347,16.513-10.378
			c18.001-6.072,37.071,1.455,47.436,6.539C481.741,159.172,475.103,170.059,462.241,175.107z"/>
	</g>
</g>
</svg>